<?xml version="1.0" encoding="UTF-8"?>
<svg width="78px" height="68px" viewBox="0 0 78 68" version="1.1" xmlns="http://www.w3.org/2000/svg" xmlns:xlink="http://www.w3.org/1999/xlink">
    <!-- Generator: Sketch 57.1 (83088) - https://sketch.com -->
    <title>logo-unesco</title>
    <desc>Created with Sketch.</desc>
    <g id="Page-1" stroke="none" stroke-width="1" fill="none" fill-rule="evenodd">
        <g id="Artboard" transform="translate(-16.000000, 0.000000)" fill="#FFFFFF" fill-rule="nonzero">
            <g id="logo-unesco" transform="translate(16.000000, 0.000000)">
                <g id="g3913" transform="translate(26.608696, 0.000000)">
                    <polygon id="path3022" points="4.63188406 33.3101449 46.4173913 33.3101449 46.4173913 31.5362319 4.63188406 31.5362319"></polygon>
                    <polygon id="path3024" points="2.26666667 36.2666667 48.684058 36.2666667 48.684058 34.4927536 2.26666667 34.4927536"></polygon>
                    <polygon id="path3026" points="0 39.3217391 50.9507246 39.3217391 50.9507246 37.5478261 0 37.5478261"></polygon>
                    <polygon id="path3028" points="4.63188406 11.5304348 46.4173913 11.5304348 46.4173913 9.75652174 4.63188406 9.75652174"></polygon>
                    <polyline id="path3030" points="13.0086957 8.37681159 25.426087 4.63188406 37.6463768 8.37681159 42.7710145 8.37681159 25.5246377 2.95652174 7.9826087 8.27826087"></polyline>
                    <polyline id="path3032" points="4.63188406 8.37681159 25.3275362 1.97101449 46.3188406 8.27826087 46.3188406 6.4057971 25.5246377 0 4.63188406 6.4057971"></polyline>
                </g>
                <g id="g3921" transform="translate(33.507246, 11.826087)">
                    <path d="M0.0985507246,17.4434783 C0.0985507246,17.4434783 0.0985507246,18.7246377 1.57681159,18.7246377 C3.05507246,18.7246377 2.95652174,17.4434783 2.95652174,17.4434783 L2.95652174,0.394202899 L1.97101449,0.394202899 L1.97101449,17.4434783 C1.97101449,17.4434783 1.97101449,17.7391304 1.57681159,17.7391304 C1.1826087,17.7391304 1.28115942,17.3449275 1.28115942,17.3449275 L1.28115942,0.394202899 L0.197101449,0.394202899" id="path3034"></path>
                    <polyline id="path3036" points="6.99710145 18.7246377 7.88405797 18.7246377 7.88405797 8.17971014 8.96811594 18.7246377 9.85507246 18.7246377 9.85507246 0.394202899 8.96811594 0.394202899 8.96811594 9.16521739 8.37681159 0.394202899 6.99710145 0.394202899"></polyline>
                    <polyline id="path3038" points="13.9942029 18.7246377 16.7536232 18.7246377 16.7536232 17.7391304 15.1768116 17.7391304 15.1768116 9.46086957 16.3594203 9.46086957 16.3594203 8.47536232 15.1768116 8.47536232 15.1768116 1.28115942 16.3594203 1.28115942 16.3594203 0.394202899 13.9942029 0.394202899"></polyline>
                    <path d="M30.1565217,5.81449275 L30.1565217,1.67536232 C30.1565217,1.67536232 30.1565217,0.394202899 28.6782609,0.394202899 C27.2985507,0.394202899 27.2985507,1.67536232 27.2985507,1.67536232 L27.2985507,17.3449275 C27.2985507,17.3449275 27.2985507,18.626087 28.6782609,18.626087 C30.1565217,18.626087 30.1565217,17.3449275 30.1565217,17.3449275 L30.1565217,12.8115942 L29.0724638,12.8115942 L29.0724638,17.4434783 C29.0724638,17.4434783 29.0724638,17.8376812 28.6782609,17.8376812 C28.3826087,17.8376812 28.284058,17.4434783 28.284058,17.4434783 L28.284058,1.67536232 C28.284058,1.67536232 28.284058,1.28115942 28.6782609,1.28115942 C29.0724638,1.28115942 29.0724638,1.67536232 29.0724638,1.67536232 L29.0724638,5.81449275" id="path3040"></path>
                    <path d="M36.0695652,17.4434783 C36.0695652,17.4434783 36.0695652,17.8376812 35.6753623,17.8376812 C35.2811594,17.8376812 35.2811594,17.4434783 35.2811594,17.4434783 L35.2811594,1.67536232 C35.2811594,1.67536232 35.2811594,1.28115942 35.6753623,1.28115942 C36.0695652,1.28115942 36.0695652,1.67536232 36.0695652,1.67536232 L36.0695652,17.4434783 Z M37.0550725,9.26376812 L37.0550725,1.77391304 C37.0550725,1.77391304 37.1536232,0.492753623 35.5768116,0.492753623 C34,0.492753623 34,1.77391304 34,1.77391304 L34,17.4434783 C34,17.4434783 34,18.7246377 35.4782609,18.7246377 C37.0550725,18.7246377 37.0550725,17.4434783 37.0550725,17.4434783 L37.0550725,11.6289855 L37.0550725,9.26376812 Z" id="path3042"></path>
                    <path d="M22.0753623,17.4434783 C22.0753623,17.4434783 22.0753623,17.8376812 21.7797101,17.7391304 C21.484058,17.7391304 21.484058,17.4434783 21.484058,17.4434783 L21.484058,12.8115942 L20.3014493,12.8115942 L20.3014493,17.4434783 C20.3014493,17.4434783 20.3014493,18.7246377 21.6811594,18.7246377 C23.1594203,18.7246377 23.1594203,17.4434783 23.1594203,17.4434783 L23.1594203,14.1913043 C23.1594203,14.1913043 23.1594203,14.3884058 23.1594203,13.5014493 C23.1594203,11.3333333 21.484058,7.29275362 21.484058,5.91304348 C21.484058,5.71594203 21.484058,5.51884058 21.484058,5.51884058 L21.484058,1.77391304 C21.484058,1.77391304 21.484058,1.37971014 21.7797101,1.37971014 C22.0753623,1.37971014 22.0753623,1.77391304 22.0753623,1.77391304 L22.0753623,5.91304348 L23.257971,5.91304348 L23.257971,1.77391304 C23.257971,1.77391304 23.257971,0.394202899 21.8782609,0.492753623 C20.4,0.492753623 20.4,1.77391304 20.4,1.77391304 L20.4,5.32173913 C20.4,7.5884058 22.0753623,11.5304348 22.0753623,13.3043478 L22.0753623,13.6985507" id="path3044"></path>
                </g>
                <g id="g3929" transform="translate(0.000000, 46.318841)">
                    <path d="M38.1391304,0.0985507246 L38.7304348,0.0985507246 L38.7304348,2.85797101 C38.7304348,3.35072464 38.6318841,3.74492754 38.5333333,4.04057971 C38.4347826,4.33623188 38.2376812,4.53333333 37.942029,4.73043478 C37.6463768,4.92753623 37.2521739,5.02608696 36.857971,5.02608696 C36.3652174,5.02608696 36.0695652,4.92753623 35.773913,4.82898551 C35.4782609,4.63188406 35.2811594,4.43478261 35.1826087,4.13913043 C35.084058,3.84347826 34.9855072,3.44927536 34.9855072,2.95652174 L34.9855072,0.197101449 L35.5768116,0.197101449 L35.5768116,2.95652174 C35.5768116,3.35072464 35.5768116,3.64637681 35.6753623,3.84347826 C35.773913,4.04057971 35.8724638,4.23768116 36.0695652,4.33623188 C36.2666667,4.43478261 36.4637681,4.53333333 36.7594203,4.53333333 C37.2521739,4.53333333 37.5478261,4.43478261 37.7449275,4.23768116 C37.942029,4.04057971 38.0405797,3.64637681 38.0405797,3.05507246" id="path3104"></path>
                    <path d="M39.8144928,4.82898551 L39.8144928,1.37971014 L40.3072464,1.37971014 L40.3072464,1.87246377 C40.6028986,1.47826087 40.8985507,1.28115942 41.3913043,1.28115942 C41.5884058,1.28115942 41.7855072,1.28115942 41.9826087,1.37971014 C42.1797101,1.47826087 42.2782609,1.57681159 42.3768116,1.67536232 C42.4753623,1.77391304 42.4753623,1.97101449 42.573913,2.06956522 C42.573913,2.16811594 42.573913,2.36521739 42.573913,2.66086957 L42.573913,4.73043478 L41.9826087,4.73043478 L41.9826087,2.66086957 C41.9826087,2.46376812 41.9826087,2.26666667 41.884058,2.16811594 C41.884058,2.06956522 41.7855072,1.97101449 41.6869565,1.87246377 C41.5884058,1.77391304 41.3913043,1.77391304 41.2927536,1.77391304 C40.9971014,1.77391304 40.8,1.87246377 40.6028986,1.97101449 C40.4057971,2.16811594 40.3072464,2.46376812 40.3072464,2.85797101 L40.3072464,4.73043478" id="path3106"></path>
                    <path d="M43.4608696,1.37971014 L44.0608696,1.37971014 L44.0608696,4.82898551 L43.4608696,4.82898551 L43.4608696,1.37971014 Z M43.4608696,0.0985507246 L44.0608696,0.0985507246 L44.0608696,0.788405797 L43.4608696,0.788405797 L43.4608696,0.0985507246 L43.4608696,0.0985507246 Z" id="path3108"></path>
                    <path d="M46.2202899,4.23768116 L46.3188406,4.73043478 C46.1217391,4.73043478 46.0231884,4.82898551 45.9246377,4.82898551 C45.7275362,4.82898551 45.5304348,4.82898551 45.4318841,4.73043478 C45.3333333,4.63188406 45.2347826,4.53333333 45.1362319,4.43478261 C45.1362319,4.33623188 45.0376812,4.13913043 45.0376812,3.74492754 L45.0376812,1.77391304 L44.6434783,1.77391304 L44.6434783,1.28115942 L45.0376812,1.28115942 L45.0376812,0.394202899 L45.6289855,0 L45.6289855,1.1826087 L46.2202899,1.1826087 L46.2202899,1.67536232 L45.6289855,1.67536232 L45.6289855,3.64637681 C45.6289855,3.84347826 45.6289855,3.94202899 45.6289855,3.94202899 C45.6289855,3.94202899 45.7275362,4.04057971 45.7275362,4.04057971 C45.7275362,4.04057971 45.826087,4.04057971 45.9246377,4.04057971 C46.0231884,4.33623188 46.1217391,4.33623188 46.2202899,4.23768116" id="path3110"></path>
                    <path d="M47.2057971,2.75942029 L49.1768116,2.75942029 C49.1768116,2.46376812 49.0782609,2.26666667 48.9797101,2.06956522 C48.7826087,1.87246377 48.5855072,1.77391304 48.2898551,1.77391304 C47.9942029,1.77391304 47.7971014,1.87246377 47.6,2.06956522 C47.3043478,2.16811594 47.2057971,2.46376812 47.2057971,2.75942029 M49.1768116,3.64637681 L49.7681159,3.74492754 C49.6695652,4.13913043 49.4724638,4.33623188 49.2753623,4.53333333 C48.9797101,4.73043478 48.684058,4.82898551 48.2898551,4.82898551 C47.7971014,4.82898551 47.4028986,4.63188406 47.1072464,4.33623188 C46.8115942,4.04057971 46.7130435,3.54782609 46.7130435,3.05507246 C46.7130435,2.46376812 46.9101449,2.06956522 47.2057971,1.67536232 C47.5014493,1.37971014 47.8956522,1.1826087 48.3884058,1.1826087 C48.8811594,1.1826087 49.2753623,1.37971014 49.4724638,1.67536232 C49.7681159,1.97101449 49.8666667,2.46376812 49.8666667,2.95652174 C49.8666667,2.95652174 49.8666667,3.05507246 49.8666667,3.15362319 L47.3043478,3.15362319 C47.3043478,3.54782609 47.4028986,3.84347826 47.6,4.04057971 C47.7971014,4.23768116 47.9942029,4.33623188 48.2898551,4.33623188 C48.4869565,4.33623188 48.684058,4.23768116 48.8811594,4.13913043 C48.9797101,4.13913043 49.0782609,3.94202899 49.1768116,3.64637681" id="path3112"></path>
                    <path d="M50.8521739,3.05507246 C50.8521739,3.44927536 50.9507246,3.84347826 51.1478261,4.04057971 C51.3449275,4.23768116 51.542029,4.33623188 51.8376812,4.33623188 C52.1333333,4.33623188 52.3304348,4.23768116 52.5275362,4.04057971 C52.7246377,3.84347826 52.8231884,3.54782609 52.8231884,3.05507246 C52.8231884,2.56231884 52.7246377,2.26666667 52.5275362,1.97101449 C52.3304348,1.77391304 52.1333333,1.67536232 51.8376812,1.67536232 C51.542029,1.67536232 51.3449275,1.77391304 51.1478261,1.97101449 C50.9507246,2.26666667 50.8521739,2.66086957 50.8521739,3.05507246 M52.7246377,4.82898551 L52.7246377,4.43478261 C52.5275362,4.73043478 52.2318841,4.92753623 51.7391304,4.92753623 C51.4434783,4.92753623 51.2463768,4.82898551 50.9507246,4.73043478 C50.7536232,4.53333333 50.5565217,4.33623188 50.457971,4.13913043 C50.3594203,3.84347826 50.2608696,3.54782609 50.2608696,3.25217391 C50.2608696,2.95652174 50.3594203,2.56231884 50.457971,2.36521739 C50.5565217,2.06956522 50.7536232,1.87246377 50.9507246,1.67536232 C51.1478261,1.47826087 51.4434783,1.47826087 51.7391304,1.47826087 C51.9362319,1.47826087 52.1333333,1.47826087 52.3304348,1.57681159 C52.5275362,1.67536232 52.626087,1.77391304 52.7246377,1.87246377 L52.7246377,0.197101449 L53.315942,0.197101449 L53.315942,4.92753623" id="path3114"></path>
                    <polyline id="path3116" points="56.0753623 4.82898551 56.0753623 0.0985507246 56.7652174 0.0985507246 59.2289855 3.84347826 59.2289855 0.0985507246 59.8202899 0.0985507246 59.8202899 4.82898551 59.1304348 4.82898551 56.6666667 1.08405797 56.6666667 4.82898551"></polyline>
                    <path d="M63.0724638,3.05507246 C62.8753623,3.15362319 62.5797101,3.25217391 62.0869565,3.25217391 C61.8898551,3.25217391 61.6927536,3.35072464 61.5942029,3.35072464 C61.4956522,3.35072464 61.3971014,3.44927536 61.3971014,3.54782609 C61.2985507,3.64637681 61.2985507,3.74492754 61.2985507,3.84347826 C61.2985507,4.04057971 61.3971014,4.13913043 61.4956522,4.23768116 C61.5942029,4.33623188 61.7913043,4.43478261 61.9884058,4.43478261 C62.1855072,4.43478261 62.3826087,4.33623188 62.5797101,4.33623188 C62.7768116,4.23768116 62.8753623,4.13913043 62.973913,3.94202899 C63.0724638,3.84347826 63.0724638,3.64637681 63.0724638,3.35072464 L63.0724638,3.05507246 Z M63.0724638,4.33623188 C62.8753623,4.53333333 62.6782609,4.63188406 62.4811594,4.73043478 C62.284058,4.82898551 62.0869565,4.82898551 61.7913043,4.82898551 C61.3971014,4.82898551 61.1014493,4.73043478 60.9043478,4.53333333 C60.7072464,4.33623188 60.6086957,4.13913043 60.6086957,3.84347826 C60.6086957,3.64637681 60.6086957,3.54782609 60.7072464,3.35072464 C60.8057971,3.25217391 60.9043478,3.05507246 61.0028986,3.05507246 C61.1014493,2.95652174 61.2985507,2.85797101 61.3971014,2.85797101 C61.4956522,2.85797101 61.6927536,2.75942029 61.8898551,2.75942029 C62.3826087,2.66086957 62.6782609,2.66086957 62.973913,2.56231884 C62.973913,2.46376812 62.973913,2.46376812 62.973913,2.36521739 C62.973913,2.16811594 62.8753623,1.97101449 62.7768116,1.87246377 C62.5797101,1.77391304 62.3826087,1.67536232 62.0869565,1.67536232 C61.7913043,1.67536232 61.5942029,1.67536232 61.4956522,1.77391304 C61.3971014,1.87246377 61.2985507,2.06956522 61.2,2.26666667 L60.6086957,2.16811594 C60.7072464,1.97101449 60.7072464,1.77391304 60.9043478,1.57681159 C61.0028986,1.37971014 61.2,1.28115942 61.3971014,1.1826087 C61.5942029,1.08405797 61.8898551,1.08405797 62.1855072,1.08405797 C62.4811594,1.08405797 62.6782609,1.08405797 62.8753623,1.1826087 C63.0724638,1.28115942 63.1710145,1.37971014 63.2695652,1.47826087 C63.3681159,1.57681159 63.3681159,1.67536232 63.4666667,1.87246377 C63.4666667,1.97101449 63.4666667,2.16811594 63.4666667,2.36521739 L63.4666667,3.15362319 C63.4666667,3.74492754 63.4666667,4.04057971 63.4666667,4.13913043 C63.4666667,4.23768116 63.5652174,4.43478261 63.5652174,4.53333333 L62.973913,4.53333333 C63.1710145,4.73043478 63.0724638,4.53333333 63.0724638,4.33623188 L63.0724638,4.33623188 Z" id="path3118"></path>
                    <path d="M65.8318841,4.23768116 L65.9304348,4.73043478 C65.7333333,4.73043478 65.6347826,4.82898551 65.5362319,4.82898551 C65.3391304,4.82898551 65.142029,4.82898551 65.0434783,4.73043478 C64.9449275,4.63188406 64.8463768,4.53333333 64.7478261,4.43478261 C64.7478261,4.33623188 64.6492754,4.13913043 64.6492754,3.74492754 L64.6492754,1.77391304 L64.2550725,1.77391304 L64.2550725,1.28115942 L64.6492754,1.28115942 L64.6492754,0.394202899 L65.2405797,0 L65.2405797,1.1826087 L65.8318841,1.1826087 L65.8318841,1.67536232 L65.2405797,1.67536232 L65.2405797,3.64637681 C65.2405797,3.84347826 65.2405797,3.94202899 65.2405797,3.94202899 C65.2405797,3.94202899 65.3391304,4.04057971 65.3391304,4.04057971 C65.3391304,4.04057971 65.4376812,4.04057971 65.5362319,4.04057971 C65.6347826,4.33623188 65.6347826,4.33623188 65.8318841,4.23768116" id="path3120"></path>
                    <path d="M66.3246377,1.37971014 L66.9246377,1.37971014 L66.9246377,4.82898551 L66.3246377,4.82898551 L66.3246377,1.37971014 Z M66.3246377,0.0985507246 L66.9246377,0.0985507246 L66.9246377,0.788405797 L66.3246377,0.788405797 L66.3246377,0.0985507246 L66.3246377,0.0985507246 Z" id="path3122"></path>
                    <path d="M68.1971014,3.05507246 C68.1971014,3.44927536 68.2956522,3.84347826 68.4927536,4.04057971 C68.6898551,4.23768116 68.8869565,4.33623188 69.1826087,4.33623188 C69.4782609,4.33623188 69.6753623,4.23768116 69.8724638,4.04057971 C70.0695652,3.84347826 70.1681159,3.44927536 70.1681159,3.05507246 C70.1681159,2.66086957 70.0695652,2.26666667 69.8724638,2.06956522 C69.6753623,1.87246377 69.4782609,1.77391304 69.1826087,1.77391304 C68.8869565,1.77391304 68.6898551,1.87246377 68.4927536,2.06956522 C68.2956522,2.26666667 68.1971014,2.66086957 68.1971014,3.05507246 M67.6057971,3.05507246 C67.6057971,2.46376812 67.8028986,1.97101449 68.0985507,1.67536232 C68.3942029,1.37971014 68.7884058,1.28115942 69.1826087,1.28115942 C69.6753623,1.28115942 70.0695652,1.47826087 70.3652174,1.77391304 C70.6608696,2.06956522 70.857971,2.46376812 70.857971,3.05507246 C70.857971,3.44927536 70.7594203,3.84347826 70.6608696,4.13913043 C70.5623188,4.43478261 70.3652174,4.63188406 70.0695652,4.73043478 C69.773913,4.82898551 69.5768116,4.92753623 69.2811594,4.92753623 C68.7884058,4.92753623 68.3942029,4.73043478 68.0985507,4.43478261 C67.8028986,4.13913043 67.6057971,3.64637681 67.6057971,3.05507246" id="path3124"></path>
                    <path d="M71.5478261,4.82898551 L71.5478261,1.37971014 L72.0405797,1.37971014 L72.0405797,1.87246377 C72.3362319,1.47826087 72.6318841,1.28115942 73.1246377,1.28115942 C73.3217391,1.28115942 73.5188406,1.28115942 73.715942,1.37971014 C73.9130435,1.47826087 74.0115942,1.57681159 74.1101449,1.67536232 C74.2086957,1.77391304 74.2086957,1.97101449 74.3072464,2.06956522 C74.3072464,2.16811594 74.3072464,2.36521739 74.3072464,2.66086957 L74.3072464,4.73043478 L73.715942,4.73043478 L73.715942,2.66086957 C73.715942,2.46376812 73.715942,2.26666667 73.6173913,2.16811594 C73.6173913,2.06956522 73.5188406,1.97101449 73.4202899,1.87246377 C73.3217391,1.77391304 73.1246377,1.77391304 73.026087,1.77391304 C72.7304348,1.77391304 72.5333333,1.87246377 72.3362319,1.97101449 C72.1391304,2.16811594 72.0405797,2.46376812 72.0405797,2.85797101 L72.0405797,4.73043478" id="path3126"></path>
                    <path d="M74.9971014,3.74492754 L75.5884058,3.64637681 C75.5884058,3.84347826 75.6869565,4.04057971 75.884058,4.13913043 C76.0811594,4.23768116 76.2782609,4.33623188 76.4753623,4.33623188 C76.7710145,4.33623188 76.9681159,4.23768116 77.0666667,4.13913043 C77.1652174,4.04057971 77.2637681,3.94202899 77.2637681,3.74492754 C77.2637681,3.64637681 77.1652174,3.54782609 77.0666667,3.44927536 C76.9681159,3.35072464 76.7710145,3.35072464 76.4753623,3.25217391 C76.0811594,3.15362319 75.7855072,3.05507246 75.5884058,2.95652174 C75.3913043,2.85797101 75.2927536,2.75942029 75.1942029,2.66086957 C75.0956522,2.56231884 75.0956522,2.36521739 75.0956522,2.16811594 C75.0956522,1.97101449 75.0956522,1.87246377 75.1942029,1.77391304 C75.2927536,1.67536232 75.3913043,1.57681159 75.4898551,1.47826087 C75.5884058,1.37971014 75.6869565,1.37971014 75.884058,1.28115942 C76.0811594,1.28115942 76.1797101,1.1826087 76.3768116,1.1826087 C76.6724638,1.1826087 76.8695652,1.1826087 77.0666667,1.28115942 C77.2637681,1.37971014 77.4608696,1.47826087 77.5594203,1.57681159 C77.657971,1.67536232 77.7565217,1.87246377 77.7565217,2.06956522 L77.1652174,2.16811594 C77.1652174,1.97101449 77.0666667,1.87246377 76.9681159,1.77391304 C76.8695652,1.67536232 76.6724638,1.67536232 76.4753623,1.67536232 C76.1797101,1.67536232 75.9826087,1.67536232 75.884058,1.77391304 C75.7855072,1.87246377 75.6869565,1.97101449 75.6869565,2.06956522 C75.6869565,2.16811594 75.6869565,2.16811594 75.7855072,2.26666667 C75.7855072,2.36521739 75.884058,2.36521739 75.9826087,2.46376812 C76.0811594,2.46376812 76.1797101,2.56231884 76.4753623,2.66086957 C76.8695652,2.75942029 77.1652174,2.85797101 77.3623188,2.95652174 C77.5594203,3.05507246 77.657971,3.15362319 77.7565217,3.25217391 C77.8550725,3.35072464 77.8550725,3.54782609 77.8550725,3.74492754 C77.8550725,3.94202899 77.7565217,4.13913043 77.657971,4.33623188 C77.5594203,4.53333333 77.3623188,4.63188406 77.1652174,4.73043478 C76.9681159,4.82898551 76.6724638,4.82898551 76.4753623,4.82898551 C75.9826087,4.82898551 75.6869565,4.73043478 75.4898551,4.53333333 C75.1942029,4.43478261 75.0956522,4.13913043 74.9971014,3.74492754" id="path3128"></path>
                    <polyline id="path3130" points="0.689855072 12.0231884 0.689855072 7.29275362 4.13913043 7.29275362 4.13913043 7.88405797 1.37971014 7.88405797 1.37971014 9.36231884 4.04057971 9.36231884 4.04057971 9.85507246 1.37971014 9.85507246 1.37971014 11.4318841 4.23768116 11.4318841 4.23768116 12.0231884"></polyline>
                    <path d="M5.42028986,10.3478261 C5.42028986,10.742029 5.51884058,11.1362319 5.71594203,11.3333333 C5.91304348,11.5304348 6.11014493,11.6289855 6.4057971,11.6289855 C6.70144928,11.6289855 6.89855072,11.5304348 7.09565217,11.3333333 C7.29275362,11.1362319 7.39130435,10.8405797 7.39130435,10.3478261 C7.39130435,9.85507246 7.29275362,9.55942029 7.09565217,9.26376812 C6.89855072,9.06666667 6.70144928,8.96811594 6.4057971,8.96811594 C6.11014493,8.96811594 5.91304348,9.06666667 5.71594203,9.26376812 C5.51884058,9.55942029 5.42028986,9.85507246 5.42028986,10.3478261 M7.29275362,12.0231884 L7.29275362,11.6289855 C7.09565217,11.9246377 6.8,12.1217391 6.30724638,12.1217391 C6.0115942,12.1217391 5.81449275,12.0231884 5.51884058,11.9246377 C5.32173913,11.7275362 5.12463768,11.5304348 5.02608696,11.3333333 C4.92753623,11.0376812 4.82898551,10.742029 4.82898551,10.4463768 C4.82898551,10.1507246 4.92753623,9.75652174 5.02608696,9.55942029 C5.12463768,9.26376812 5.32173913,9.06666667 5.51884058,8.86956522 C5.71594203,8.67246377 6.0115942,8.67246377 6.30724638,8.67246377 C6.50434783,8.67246377 6.70144928,8.67246377 6.89855072,8.77101449 C7.09565217,8.86956522 7.1942029,8.96811594 7.29275362,9.06666667 L7.29275362,7.39130435 L7.88405797,7.39130435 L7.88405797,12.1217391" id="path3132"></path>
                    <path d="M11.0376812,12.0231884 L11.0376812,11.5304348 C10.742029,11.9246377 10.4463768,12.1217391 9.95362319,12.1217391 C9.75652174,12.1217391 9.55942029,12.1217391 9.36231884,12.0231884 C9.16521739,11.9246377 9.06666667,11.826087 8.96811594,11.7275362 C8.86956522,11.6289855 8.86956522,11.4318841 8.77101449,11.3333333 C8.77101449,11.2347826 8.77101449,11.0376812 8.77101449,10.742029 L8.77101449,8.57391304 L9.36231884,8.57391304 L9.36231884,10.4463768 C9.36231884,10.742029 9.36231884,10.9391304 9.36231884,11.0376812 C9.36231884,11.2347826 9.46086957,11.3333333 9.55942029,11.4318841 C9.65797101,11.5304348 9.85507246,11.5304348 9.95362319,11.5304348 C10.1507246,11.5304348 10.2492754,11.5304348 10.4463768,11.4318841 C10.6434783,11.3333333 10.742029,11.2347826 10.742029,11.0376812 C10.8405797,10.8405797 10.8405797,10.6434783 10.8405797,10.3478261 L10.8405797,8.47536232 L11.4318841,8.47536232 L11.4318841,11.9246377" id="path3134"></path>
                    <path d="M14.684058,10.742029 L15.2753623,10.8405797 C15.1768116,11.2347826 15.0782609,11.5304348 14.7826087,11.7275362 C14.4869565,11.9246377 14.1913043,12.0231884 13.7971014,12.0231884 C13.3043478,12.0231884 12.9101449,11.826087 12.6144928,11.5304348 C12.3188406,11.2347826 12.2202899,10.742029 12.2202899,10.2492754 C12.2202899,9.85507246 12.3188406,9.55942029 12.4173913,9.26376812 C12.515942,8.96811594 12.7130435,8.77101449 13.0086957,8.67246377 C13.3043478,8.57391304 13.5014493,8.47536232 13.7971014,8.47536232 C14.1913043,8.47536232 14.4869565,8.57391304 14.684058,8.77101449 C14.8811594,8.96811594 15.0782609,9.26376812 15.1768116,9.55942029 L14.5855072,9.65797101 C14.4869565,9.46086957 14.3884058,9.26376812 14.2898551,9.16521739 C14.1913043,9.06666667 13.9942029,8.96811594 13.7971014,8.96811594 C13.5014493,8.96811594 13.3043478,9.06666667 13.1072464,9.26376812 C12.9101449,9.46086957 12.8115942,9.75652174 12.8115942,10.2492754 C12.8115942,10.742029 12.9101449,11.0376812 13.1072464,11.2347826 C13.3043478,11.4318841 13.5014493,11.5304348 13.7971014,11.5304348 C13.9942029,11.5304348 14.1913043,11.4318841 14.3884058,11.3333333 C14.5855072,11.3333333 14.684058,11.0376812 14.684058,10.742029" id="path3136"></path>
                    <path d="M17.9362319,10.3478261 C17.7391304,10.4463768 17.4434783,10.5449275 16.9507246,10.5449275 C16.7536232,10.5449275 16.5565217,10.6434783 16.457971,10.6434783 C16.3594203,10.6434783 16.2608696,10.742029 16.2608696,10.8405797 C16.1623188,10.9391304 16.1623188,11.0376812 16.1623188,11.1362319 C16.1623188,11.3333333 16.2608696,11.4318841 16.3594203,11.5304348 C16.457971,11.6289855 16.6550725,11.7275362 16.8521739,11.7275362 C17.0492754,11.7275362 17.2463768,11.7275362 17.4434783,11.6289855 C17.6405797,11.5304348 17.7391304,11.4318841 17.8376812,11.2347826 C17.9362319,11.1362319 17.9362319,10.9391304 17.9362319,10.6434783 L17.9362319,10.3478261 Z M18.0347826,11.6289855 C17.8376812,11.826087 17.6405797,11.9246377 17.4434783,12.0231884 C17.2463768,12.1217391 17.0492754,12.1217391 16.7536232,12.1217391 C16.3594203,12.1217391 16.0637681,12.0231884 15.8666667,11.826087 C15.6695652,11.6289855 15.5710145,11.4318841 15.5710145,11.1362319 C15.5710145,10.9391304 15.5710145,10.8405797 15.6695652,10.6434783 C15.7681159,10.5449275 15.8666667,10.3478261 15.9652174,10.3478261 C16.0637681,10.2492754 16.2608696,10.1507246 16.3594203,10.1507246 C16.457971,10.1507246 16.6550725,10.0521739 16.8521739,10.0521739 C17.3449275,9.95362319 17.6405797,9.95362319 17.9362319,9.85507246 C17.9362319,9.75652174 17.9362319,9.75652174 17.9362319,9.65797101 C17.9362319,9.46086957 17.8376812,9.26376812 17.7391304,9.16521739 C17.542029,9.06666667 17.3449275,8.96811594 17.0492754,8.96811594 C16.7536232,8.96811594 16.5565217,8.96811594 16.457971,9.06666667 C16.3594203,9.16521739 16.2608696,9.36231884 16.1623188,9.55942029 L15.5710145,9.46086957 C15.6695652,9.26376812 15.6695652,9.06666667 15.8666667,8.86956522 C15.9652174,8.67246377 16.1623188,8.57391304 16.3594203,8.47536232 C16.5565217,8.37681159 16.8521739,8.37681159 17.1478261,8.37681159 C17.4434783,8.37681159 17.6405797,8.37681159 17.8376812,8.47536232 C18.0347826,8.57391304 18.1333333,8.67246377 18.2318841,8.77101449 C18.3304348,8.86956522 18.3304348,8.96811594 18.4289855,9.16521739 C18.4289855,9.26376812 18.4289855,9.46086957 18.4289855,9.65797101 L18.4289855,10.4463768 C18.4289855,11.0376812 18.4289855,11.3333333 18.4289855,11.4318841 C18.4289855,11.5304348 18.5275362,11.7275362 18.5275362,11.826087 L17.9362319,11.826087 C18.0347826,11.9246377 18.0347826,11.826087 18.0347826,11.6289855 L18.0347826,11.6289855 Z" id="path3138"></path>
                    <path d="M20.6956522,11.5304348 L20.7942029,12.0231884 C20.5971014,12.0231884 20.4985507,12.1217391 20.4,12.1217391 C20.2028986,12.1217391 20.0057971,12.1217391 19.9072464,12.0231884 C19.8086957,11.9246377 19.7101449,11.826087 19.6115942,11.7275362 C19.6115942,11.6289855 19.5130435,11.4318841 19.5130435,11.0376812 L19.5130435,9.06666667 L19.1188406,9.06666667 L19.1188406,8.57391304 L19.5130435,8.57391304 L19.5130435,7.68695652 L20.1043478,7.29275362 L20.1043478,8.47536232 L20.6956522,8.47536232 L20.6956522,8.96811594 L20.1043478,8.96811594 L20.1043478,10.9391304 C20.1043478,11.1362319 20.1043478,11.2347826 20.1043478,11.2347826 C20.1043478,11.2347826 20.2028986,11.3333333 20.2028986,11.3333333 C20.2028986,11.3333333 20.3014493,11.3333333 20.4,11.3333333 C20.4985507,11.5304348 20.5971014,11.5304348 20.6956522,11.5304348" id="path3140"></path>
                    <path d="M21.2869565,8.57391304 L21.8869565,8.57391304 L21.8869565,12.0231884 L21.2869565,12.0231884 L21.2869565,8.57391304 Z M21.2869565,7.29275362 L21.8869565,7.29275362 L21.8869565,7.9826087 L21.2869565,7.9826087 L21.2869565,7.29275362 L21.2869565,7.29275362 Z" id="path3142"></path>
                    <path d="M23.1594203,10.3478261 C23.1594203,10.742029 23.257971,11.1362319 23.4550725,11.3333333 C23.6521739,11.5304348 23.8492754,11.6289855 24.1449275,11.6289855 C24.4405797,11.6289855 24.6376812,11.5304348 24.8347826,11.3333333 C25.0318841,11.1362319 25.1304348,10.742029 25.1304348,10.3478261 C25.1304348,9.95362319 25.0318841,9.55942029 24.8347826,9.36231884 C24.6376812,9.16521739 24.4405797,9.06666667 24.1449275,9.06666667 C23.8492754,9.06666667 23.6521739,9.16521739 23.4550725,9.36231884 C23.257971,9.55942029 23.1594203,9.85507246 23.1594203,10.3478261 M22.5681159,10.3478261 C22.5681159,9.75652174 22.7652174,9.26376812 23.0608696,8.96811594 C23.3565217,8.67246377 23.7507246,8.57391304 24.1449275,8.57391304 C24.6376812,8.57391304 25.0318841,8.77101449 25.3275362,9.06666667 C25.6231884,9.36231884 25.8202899,9.75652174 25.8202899,10.3478261 C25.8202899,10.742029 25.7217391,11.1362319 25.6231884,11.4318841 C25.5246377,11.7275362 25.3275362,11.9246377 25.0318841,12.0231884 C24.7362319,12.1217391 24.5391304,12.2202899 24.2434783,12.2202899 C23.7507246,12.2202899 23.3565217,12.0231884 23.0608696,11.7275362 C22.6666667,11.3333333 22.5681159,10.9391304 22.5681159,10.3478261" id="path3144"></path>
                    <path d="M26.5101449,12.0231884 L26.5101449,8.57391304 L27.0028986,8.57391304 L27.0028986,9.06666667 C27.2985507,8.67246377 27.5942029,8.47536232 28.0869565,8.47536232 C28.284058,8.47536232 28.4811594,8.47536232 28.6782609,8.57391304 C28.8753623,8.67246377 28.973913,8.77101449 29.0724638,8.86956522 C29.1710145,8.96811594 29.1710145,9.16521739 29.2695652,9.26376812 C29.2695652,9.36231884 29.2695652,9.55942029 29.2695652,9.85507246 L29.2695652,11.9246377 L28.6782609,11.9246377 L28.6782609,9.85507246 C28.6782609,9.65797101 28.6782609,9.46086957 28.5797101,9.36231884 C28.5797101,9.26376812 28.4811594,9.16521739 28.3826087,9.06666667 C28.284058,8.96811594 28.0869565,8.96811594 27.9884058,8.96811594 C27.6927536,8.96811594 27.4956522,9.06666667 27.2985507,9.16521739 C27.1014493,9.36231884 27.0028986,9.65797101 27.0028986,10.0521739 L27.0028986,11.9246377" id="path3146"></path>
                    <path d="M32.4231884,10.3478261 C32.226087,10.4463768 31.9304348,10.5449275 31.4376812,10.5449275 C31.2405797,10.5449275 31.0434783,10.6434783 30.9449275,10.6434783 C30.8463768,10.6434783 30.7478261,10.742029 30.7478261,10.8405797 C30.6492754,10.9391304 30.6492754,11.0376812 30.6492754,11.1362319 C30.6492754,11.3333333 30.7478261,11.4318841 30.8463768,11.5304348 C30.9449275,11.6289855 31.142029,11.7275362 31.3391304,11.7275362 C31.5362319,11.7275362 31.7333333,11.7275362 31.9304348,11.6289855 C32.1275362,11.5304348 32.226087,11.4318841 32.3246377,11.2347826 C32.4231884,11.1362319 32.4231884,10.9391304 32.4231884,10.6434783 L32.4231884,10.3478261 Z M32.4231884,11.6289855 C32.226087,11.826087 32.0289855,11.9246377 31.8318841,12.0231884 C31.6347826,12.1217391 31.4376812,12.1217391 31.142029,12.1217391 C30.7478261,12.1217391 30.4521739,12.0231884 30.2550725,11.826087 C30.057971,11.6289855 29.9594203,11.4318841 29.9594203,11.1362319 C29.9594203,10.9391304 29.9594203,10.8405797 30.057971,10.6434783 C30.1565217,10.5449275 30.2550725,10.3478261 30.3536232,10.3478261 C30.4521739,10.2492754 30.6492754,10.1507246 30.7478261,10.1507246 C30.8463768,10.1507246 31.0434783,10.0521739 31.2405797,10.0521739 C31.7333333,9.95362319 32.0289855,9.95362319 32.3246377,9.85507246 C32.3246377,9.75652174 32.3246377,9.75652174 32.3246377,9.65797101 C32.3246377,9.46086957 32.226087,9.26376812 32.1275362,9.16521739 C31.9304348,9.06666667 31.7333333,8.96811594 31.4376812,8.96811594 C31.142029,8.96811594 30.9449275,8.96811594 30.8463768,9.06666667 C30.7478261,9.16521739 30.6492754,9.36231884 30.5507246,9.55942029 L29.9594203,9.46086957 C30.057971,9.26376812 30.057971,9.06666667 30.2550725,8.86956522 C30.3536232,8.67246377 30.5507246,8.57391304 30.7478261,8.47536232 C30.9449275,8.37681159 31.2405797,8.37681159 31.5362319,8.37681159 C31.8318841,8.37681159 32.0289855,8.37681159 32.226087,8.47536232 C32.4231884,8.57391304 32.5217391,8.67246377 32.6202899,8.77101449 C32.7188406,8.86956522 32.7188406,8.96811594 32.8173913,9.16521739 C32.8173913,9.26376812 32.8173913,9.46086957 32.8173913,9.65797101 L32.8173913,10.4463768 C32.8173913,11.0376812 32.8173913,11.3333333 32.8173913,11.4318841 C32.8173913,11.5304348 32.915942,11.7275362 32.915942,11.826087 L32.5217391,11.826087 C32.5217391,11.9246377 32.4231884,11.826087 32.4231884,11.6289855 L32.4231884,11.6289855 Z" id="path3148"></path>
                    <polygon id="path3150" points="33.8028986 12.0231884 34.3942029 12.0231884 34.3942029 7.29275362 33.8028986 7.29275362"></polygon>
                    <path d="M35.4782609,12.0231884 L35.4782609,11.3333333 L36.1681159,11.3333333 L36.1681159,12.0231884 C36.1681159,12.2202899 36.1681159,12.4173913 36.0695652,12.6144928 C35.9710145,12.8115942 35.8724638,12.9101449 35.6753623,13.0086957 L35.4782609,12.8115942 C35.5768116,12.7130435 35.6753623,12.7130435 35.773913,12.6144928 C35.8724638,12.515942 35.8724638,12.3188406 35.8724638,12.1217391" id="path3152"></path>
                    <path d="M38.9275362,10.5449275 L39.5188406,10.4463768 C39.5188406,10.6434783 39.6173913,10.8405797 39.715942,11.0376812 C39.8144928,11.2347826 40.0115942,11.3333333 40.2086957,11.4318841 C40.4057971,11.5304348 40.7014493,11.5304348 40.8985507,11.5304348 C41.0956522,11.5304348 41.3913043,11.5304348 41.4898551,11.4318841 C41.6869565,11.3333333 41.7855072,11.2347826 41.884058,11.1362319 C41.9826087,11.0376812 41.9826087,10.8405797 41.9826087,10.742029 C41.9826087,10.5449275 41.9826087,10.4463768 41.884058,10.3478261 C41.7855072,10.2492754 41.6869565,10.1507246 41.4898551,10.0521739 C41.3913043,9.95362319 41.0956522,9.95362319 40.6028986,9.85507246 C40.2086957,9.75652174 39.8144928,9.65797101 39.715942,9.55942029 C39.5188406,9.46086957 39.3217391,9.26376812 39.2231884,9.16521739 C39.1246377,8.96811594 39.026087,8.77101449 39.026087,8.57391304 C39.026087,8.37681159 39.1246377,8.08115942 39.2231884,7.88405797 C39.3217391,7.68695652 39.5188406,7.48985507 39.8144928,7.39130435 C40.1101449,7.29275362 40.4057971,7.1942029 40.7014493,7.1942029 C41.0956522,7.1942029 41.3913043,7.29275362 41.5884058,7.39130435 C41.884058,7.48985507 42.0811594,7.68695652 42.1797101,7.88405797 C42.2782609,8.08115942 42.3768116,8.37681159 42.3768116,8.67246377 L41.7855072,8.67246377 C41.7855072,8.37681159 41.6869565,8.17971014 41.4898551,7.9826087 C41.2927536,7.78550725 40.9971014,7.78550725 40.7014493,7.78550725 C40.3072464,7.78550725 40.0115942,7.88405797 39.9130435,7.9826087 C39.715942,8.08115942 39.6173913,8.27826087 39.6173913,8.47536232 C39.6173913,8.67246377 39.715942,8.77101449 39.8144928,8.86956522 C39.9130435,8.96811594 40.2086957,9.06666667 40.8,9.16521739 C41.2927536,9.26376812 41.6869565,9.36231884 41.884058,9.46086957 C42.1797101,9.55942029 42.3768116,9.75652174 42.4753623,9.95362319 C42.573913,10.1507246 42.6724638,10.3478261 42.6724638,10.6434783 C42.6724638,10.9391304 42.573913,11.1362319 42.4753623,11.3333333 C42.3768116,11.5304348 42.0811594,11.7275362 41.884058,11.826087 C41.5884058,11.9246377 41.2927536,12.0231884 40.9971014,12.0231884 C40.6028986,12.0231884 40.2086957,11.9246377 39.9130435,11.826087 C39.6173913,11.7275362 39.4202899,11.5304348 39.2231884,11.2347826 C39.026087,11.1362319 38.9275362,10.8405797 38.9275362,10.5449275" id="path3154"></path>
                    <path d="M45.7275362,10.742029 L46.3188406,10.8405797 C46.2202899,11.2347826 46.1217391,11.5304348 45.826087,11.7275362 C45.5304348,11.9246377 45.2347826,12.0231884 44.8405797,12.0231884 C44.3478261,12.0231884 43.9536232,11.826087 43.657971,11.5304348 C43.3623188,11.2347826 43.2637681,10.742029 43.2637681,10.2492754 C43.2637681,9.85507246 43.3623188,9.55942029 43.4608696,9.26376812 C43.5594203,8.96811594 43.7565217,8.77101449 44.0521739,8.67246377 C44.3478261,8.57391304 44.5449275,8.47536232 44.8405797,8.47536232 C45.2347826,8.47536232 45.5304348,8.57391304 45.7275362,8.77101449 C45.9246377,8.96811594 46.1217391,9.26376812 46.2202899,9.55942029 L45.6289855,9.65797101 C45.5304348,9.46086957 45.4318841,9.26376812 45.3333333,9.16521739 C45.2347826,9.06666667 45.0376812,8.96811594 44.8405797,8.96811594 C44.5449275,8.96811594 44.3478261,9.06666667 44.1507246,9.26376812 C43.9536232,9.46086957 43.8550725,9.75652174 43.8550725,10.2492754 C43.8550725,10.742029 43.9536232,11.0376812 44.1507246,11.2347826 C44.3478261,11.4318841 44.5449275,11.5304348 44.8405797,11.5304348 C45.0376812,11.5304348 45.2347826,11.4318841 45.4318841,11.3333333 C45.5304348,11.3333333 45.6289855,11.0376812 45.7275362,10.742029" id="path3156"></path>
                    <path d="M46.8115942,8.57391304 L47.4115942,8.57391304 L47.4115942,12.0231884 L46.8115942,12.0231884 L46.8115942,8.57391304 Z M46.8115942,7.29275362 L47.4115942,7.29275362 L47.4115942,7.9826087 L46.8115942,7.9826087 L46.8115942,7.29275362 L46.8115942,7.29275362 Z" id="path3158"></path>
                    <path d="M48.684058,9.95362319 L50.6550725,9.95362319 C50.6550725,9.65797101 50.5565217,9.46086957 50.457971,9.26376812 C50.2608696,9.06666667 50.0637681,8.96811594 49.7681159,8.96811594 C49.4724638,8.96811594 49.2753623,9.06666667 49.0782609,9.26376812 C48.7826087,9.46086957 48.684058,9.65797101 48.684058,9.95362319 M50.6550725,10.9391304 L51.2463768,11.0376812 C51.1478261,11.4318841 50.9507246,11.6289855 50.7536232,11.826087 C50.457971,12.0231884 50.1623188,12.1217391 49.7681159,12.1217391 C49.2753623,12.1217391 48.8811594,11.9246377 48.5855072,11.6289855 C48.2898551,11.3333333 48.1913043,10.8405797 48.1913043,10.3478261 C48.1913043,9.75652174 48.3884058,9.36231884 48.684058,8.96811594 C48.9797101,8.67246377 49.373913,8.47536232 49.8666667,8.47536232 C50.3594203,8.47536232 50.7536232,8.67246377 50.9507246,8.96811594 C51.2463768,9.26376812 51.3449275,9.75652174 51.3449275,10.2492754 C51.3449275,10.2492754 51.3449275,10.3478261 51.3449275,10.4463768 L48.7826087,10.4463768 C48.7826087,10.8405797 48.8811594,11.1362319 49.0782609,11.3333333 C49.2753623,11.5304348 49.4724638,11.6289855 49.7681159,11.6289855 C49.9652174,11.6289855 50.1623188,11.5304348 50.3594203,11.4318841 C50.457971,11.3333333 50.5565217,11.2347826 50.6550725,10.9391304" id="path3160"></path>
                    <path d="M51.9362319,12.0231884 L51.9362319,8.57391304 L52.4289855,8.57391304 L52.4289855,9.06666667 C52.7246377,8.67246377 53.0202899,8.47536232 53.5130435,8.47536232 C53.7101449,8.47536232 53.9072464,8.47536232 54.1043478,8.57391304 C54.3014493,8.67246377 54.4,8.77101449 54.4985507,8.86956522 C54.5971014,8.96811594 54.5971014,9.16521739 54.6956522,9.26376812 C54.6956522,9.36231884 54.6956522,9.55942029 54.6956522,9.85507246 L54.6956522,11.9246377 L54.2028986,11.9246377 L54.2028986,9.85507246 C54.2028986,9.65797101 54.2028986,9.46086957 54.1043478,9.36231884 C54.1043478,9.26376812 54.0057971,9.16521739 53.9072464,9.06666667 C53.8086957,8.96811594 53.6115942,8.96811594 53.5130435,8.96811594 C53.2173913,8.96811594 53.0202899,9.06666667 52.8231884,9.16521739 C52.626087,9.36231884 52.5275362,9.65797101 52.5275362,10.0521739 L52.5275362,11.9246377" id="path3162"></path>
                    <path d="M56.9623188,11.5304348 L57.0608696,12.0231884 C56.8637681,12.0231884 56.7652174,12.1217391 56.6666667,12.1217391 C56.4695652,12.1217391 56.2724638,12.1217391 56.173913,12.0231884 C56.0753623,11.9246377 55.9768116,11.826087 55.8782609,11.7275362 C55.8782609,11.6289855 55.7797101,11.4318841 55.7797101,11.0376812 L55.7797101,9.06666667 L55.3855072,9.06666667 L55.3855072,8.57391304 L55.7797101,8.57391304 L55.7797101,7.68695652 L56.3710145,7.29275362 L56.3710145,8.47536232 L56.9623188,8.47536232 L56.9623188,8.96811594 L56.3710145,8.96811594 L56.3710145,10.9391304 C56.3710145,11.1362319 56.3710145,11.2347826 56.3710145,11.2347826 C56.3710145,11.2347826 56.4695652,11.3333333 56.4695652,11.3333333 C56.4695652,11.3333333 56.5681159,11.3333333 56.6666667,11.3333333 C56.7652174,11.5304348 56.7652174,11.5304348 56.9623188,11.5304348" id="path3164"></path>
                    <path d="M57.4550725,8.57391304 L58.0550725,8.57391304 L58.0550725,12.0231884 L57.4550725,12.0231884 L57.4550725,8.57391304 Z M57.4550725,7.29275362 L58.0550725,7.29275362 L58.0550725,7.9826087 L57.4550725,7.9826087 L57.4550725,7.29275362 L57.4550725,7.29275362 Z" id="path3166"></path>
                    <path d="M60.8057971,8.57391304 L61.3971014,8.57391304 L61.3971014,12.0231884 L60.8057971,12.0231884 L60.8057971,8.57391304 Z M60.8057971,7.29275362 L61.3971014,7.29275362 L61.3971014,7.9826087 L60.8057971,7.9826087 L60.8057971,7.29275362 Z M59.1304348,12.0231884 L59.1304348,9.06666667 L58.6376812,9.06666667 L58.6376812,8.57391304 L59.1304348,8.57391304 L59.1304348,8.27826087 C59.1304348,7.9826087 59.2289855,7.68695652 59.3275362,7.48985507 C59.426087,7.29275362 59.7217391,7.1942029 60.0173913,7.1942029 C60.2144928,7.1942029 60.4115942,7.1942029 60.6086957,7.29275362 L60.5101449,7.78550725 C60.4115942,7.78550725 60.3130435,7.78550725 60.2144928,7.78550725 C60.0173913,7.78550725 59.9188406,7.78550725 59.8202899,7.88405797 C59.7217391,7.9826087 59.7217391,8.17971014 59.7217391,8.37681159 L59.7217391,8.57391304 L60.4115942,8.57391304 L60.4115942,9.06666667 L59.7217391,9.06666667 L59.7217391,12.0231884 L59.1304348,12.0231884 Z" id="path3168"></path>
                    <path d="M64.5507246,10.742029 L65.142029,10.8405797 C65.0434783,11.2347826 64.9449275,11.5304348 64.6492754,11.7275362 C64.3536232,11.9246377 64.057971,12.0231884 63.6637681,12.0231884 C63.1710145,12.0231884 62.7768116,11.826087 62.5797101,11.5304348 C62.284058,11.2347826 62.1855072,10.742029 62.1855072,10.2492754 C62.1855072,9.85507246 62.284058,9.55942029 62.3826087,9.26376812 C62.4811594,8.96811594 62.6782609,8.77101449 62.973913,8.67246377 C63.2695652,8.57391304 63.4666667,8.47536232 63.7623188,8.47536232 C64.1565217,8.47536232 64.4521739,8.57391304 64.6492754,8.77101449 C64.8463768,8.96811594 65.0434783,9.26376812 65.142029,9.55942029 L64.5507246,9.65797101 C64.4521739,9.46086957 64.3536232,9.26376812 64.2550725,9.16521739 C64.1565217,9.06666667 63.9594203,8.96811594 63.7623188,8.96811594 C63.4666667,8.96811594 63.2695652,9.06666667 63.0724638,9.26376812 C62.8753623,9.46086957 62.7768116,9.75652174 62.7768116,10.2492754 C62.7768116,10.742029 62.8753623,11.0376812 63.0724638,11.2347826 C63.2695652,11.4318841 63.4666667,11.5304348 63.7623188,11.5304348 C63.9594203,11.5304348 64.1565217,11.4318841 64.3536232,11.3333333 C64.3536232,11.3333333 64.4521739,11.0376812 64.5507246,10.742029" id="path3170"></path>
                    <path d="M69.6753623,10.3478261 C69.4782609,10.4463768 69.1826087,10.5449275 68.6898551,10.5449275 C68.4927536,10.5449275 68.2956522,10.6434783 68.1971014,10.6434783 C68.0985507,10.6434783 68,10.742029 68,10.8405797 C67.9014493,10.9391304 67.9014493,11.0376812 67.9014493,11.1362319 C67.9014493,11.3333333 68,11.4318841 68.0985507,11.5304348 C68.1971014,11.6289855 68.3942029,11.7275362 68.5913043,11.7275362 C68.7884058,11.7275362 68.9855072,11.7275362 69.1826087,11.6289855 C69.3797101,11.5304348 69.4782609,11.4318841 69.5768116,11.2347826 C69.6753623,11.1362319 69.6753623,10.9391304 69.6753623,10.6434783 L69.6753623,10.3478261 Z M69.6753623,11.6289855 C69.4782609,11.826087 69.2811594,11.9246377 69.084058,12.0231884 C68.8869565,12.1217391 68.6898551,12.1217391 68.3942029,12.1217391 C68,12.1217391 67.7043478,12.0231884 67.5072464,11.826087 C67.3101449,11.6289855 67.2115942,11.4318841 67.2115942,11.1362319 C67.2115942,10.9391304 67.2115942,10.8405797 67.3101449,10.6434783 C67.4086957,10.5449275 67.5072464,10.3478261 67.6057971,10.3478261 C67.7043478,10.2492754 67.9014493,10.1507246 68,10.1507246 C68.0985507,10.1507246 68.2956522,10.0521739 68.4927536,10.0521739 C68.9855072,9.95362319 69.2811594,9.95362319 69.5768116,9.85507246 C69.5768116,9.75652174 69.5768116,9.75652174 69.5768116,9.65797101 C69.5768116,9.46086957 69.4782609,9.26376812 69.3797101,9.16521739 C69.1826087,9.06666667 68.9855072,8.96811594 68.6898551,8.96811594 C68.3942029,8.96811594 68.1971014,8.96811594 68.0985507,9.06666667 C68,9.16521739 67.9014493,9.36231884 67.8028986,9.55942029 L67.2115942,9.46086957 C67.3101449,9.26376812 67.3101449,9.06666667 67.5072464,8.86956522 C67.6057971,8.67246377 67.8028986,8.57391304 68,8.47536232 C68.1971014,8.37681159 68.4927536,8.37681159 68.7884058,8.37681159 C69.084058,8.37681159 69.2811594,8.37681159 69.4782609,8.47536232 C69.6753623,8.57391304 69.773913,8.67246377 69.8724638,8.77101449 C69.9710145,8.86956522 69.9710145,8.96811594 70.0695652,9.16521739 C70.0695652,9.26376812 70.0695652,9.46086957 70.0695652,9.65797101 L70.0695652,10.4463768 C70.0695652,11.0376812 70.0695652,11.3333333 70.0695652,11.4318841 C70.0695652,11.5304348 70.1681159,11.7275362 70.1681159,11.826087 L69.5768116,11.826087 C69.773913,11.9246377 69.6753623,11.826087 69.6753623,11.6289855 L69.6753623,11.6289855 Z" id="path3172"></path>
                    <path d="M71.1536232,12.0231884 L71.1536232,8.57391304 L71.6463768,8.57391304 L71.6463768,9.06666667 C71.942029,8.67246377 72.2376812,8.47536232 72.7304348,8.47536232 C72.9275362,8.47536232 73.1246377,8.47536232 73.3217391,8.57391304 C73.5188406,8.67246377 73.6173913,8.77101449 73.715942,8.86956522 C73.8144928,8.96811594 73.8144928,9.16521739 73.9130435,9.26376812 C73.9130435,9.36231884 73.9130435,9.55942029 73.9130435,9.85507246 L73.9130435,11.9246377 L73.3217391,11.9246377 L73.3217391,9.85507246 C73.3217391,9.65797101 73.3217391,9.46086957 73.2231884,9.36231884 C73.2231884,9.26376812 73.1246377,9.16521739 73.026087,9.06666667 C72.9275362,8.96811594 72.7304348,8.96811594 72.6318841,8.96811594 C72.3362319,8.96811594 72.1391304,9.06666667 71.942029,9.16521739 C71.7449275,9.36231884 71.6463768,9.65797101 71.6463768,10.0521739 L71.6463768,11.9246377" id="path3174"></path>
                    <path d="M75.1942029,10.3478261 C75.1942029,10.742029 75.2927536,11.1362319 75.4898551,11.3333333 C75.6869565,11.5304348 75.884058,11.6289855 76.1797101,11.6289855 C76.4753623,11.6289855 76.6724638,11.5304348 76.8695652,11.3333333 C77.0666667,11.1362319 77.1652174,10.8405797 77.1652174,10.3478261 C77.1652174,9.85507246 77.0666667,9.55942029 76.8695652,9.26376812 C76.6724638,9.06666667 76.4753623,8.96811594 76.1797101,8.96811594 C75.884058,8.96811594 75.6869565,9.06666667 75.4898551,9.26376812 C75.2927536,9.55942029 75.1942029,9.85507246 75.1942029,10.3478261 M77.0666667,12.0231884 L77.0666667,11.6289855 C76.8695652,11.9246377 76.573913,12.1217391 76.0811594,12.1217391 C75.7855072,12.1217391 75.5884058,12.0231884 75.2927536,11.9246377 C75.0956522,11.7275362 74.8985507,11.5304348 74.8,11.3333333 C74.7014493,11.0376812 74.6028986,10.742029 74.6028986,10.4463768 C74.6028986,10.1507246 74.7014493,9.75652174 74.8,9.55942029 C74.8985507,9.26376812 75.0956522,9.06666667 75.2927536,8.86956522 C75.4898551,8.67246377 75.7855072,8.67246377 76.0811594,8.67246377 C76.2782609,8.67246377 76.4753623,8.67246377 76.6724638,8.77101449 C76.8695652,8.86956522 76.9681159,8.96811594 77.0666667,9.06666667 L77.0666667,7.39130435 L77.657971,7.39130435 L77.657971,12.1217391" id="path3176"></path>
                    <path d="M19.5130435,17.6405797 L20.1043478,17.8376812 C20.0057971,18.3304348 19.7101449,18.7246377 19.4144928,19.0202899 C19.1188406,19.315942 18.626087,19.4144928 18.1333333,19.4144928 C17.6405797,19.4144928 17.2463768,19.315942 16.8521739,19.1188406 C16.5565217,18.9217391 16.2608696,18.626087 16.1623188,18.2318841 C15.9652174,17.8376812 15.8666667,17.4434783 15.8666667,16.9507246 C15.8666667,16.457971 15.9652174,16.0637681 16.1623188,15.6695652 C16.3594203,15.2753623 16.6550725,14.9797101 16.9507246,14.7826087 C17.3449275,14.5855072 17.6405797,14.4869565 18.1333333,14.4869565 C18.626087,14.4869565 19.0202899,14.5855072 19.315942,14.8811594 C19.6115942,15.0782609 19.9072464,15.4724638 20.0057971,15.8666667 L19.4144928,15.9652174 C19.315942,15.5710145 19.1188406,15.373913 18.9217391,15.1768116 C18.7246377,14.9797101 18.4289855,14.9797101 18.1333333,14.9797101 C17.7391304,14.9797101 17.4434783,15.0782609 17.2463768,15.2753623 C17.0492754,15.4724638 16.8521739,15.6695652 16.7536232,15.9652174 C16.6550725,16.2608696 16.6550725,16.5565217 16.6550725,16.8521739 C16.6550725,17.2463768 16.7536232,17.6405797 16.8521739,17.9362319 C16.9507246,18.2318841 17.1478261,18.4289855 17.4434783,18.626087 C17.7391304,18.8231884 17.9362319,18.8231884 18.2318841,18.8231884 C18.626087,18.8231884 18.9217391,18.7246377 19.1188406,18.5275362 C19.315942,18.3304348 19.4144928,18.0347826 19.5130435,17.6405797" id="path3178"></path>
                    <path d="M23.1594203,19.315942 L23.1594203,18.8231884 C22.8637681,19.2173913 22.5681159,19.4144928 22.0753623,19.4144928 C21.8782609,19.4144928 21.6811594,19.4144928 21.484058,19.315942 C21.2869565,19.2173913 21.1884058,19.1188406 21.0898551,19.0202899 C20.9913043,18.9217391 20.9913043,18.7246377 20.8927536,18.626087 C20.8927536,18.5275362 20.8927536,18.3304348 20.8927536,18.0347826 L20.8927536,15.8666667 L21.484058,15.8666667 L21.484058,17.7391304 C21.484058,18.0347826 21.484058,18.2318841 21.484058,18.3304348 C21.484058,18.5275362 21.5826087,18.626087 21.6811594,18.7246377 C21.7797101,18.8231884 21.9768116,18.8231884 22.0753623,18.8231884 C22.2724638,18.8231884 22.3710145,18.8231884 22.5681159,18.7246377 C22.7652174,18.626087 22.8637681,18.5275362 22.8637681,18.3304348 C22.9623188,18.1333333 22.9623188,17.9362319 22.9623188,17.6405797 L22.9623188,15.7681159 L23.5536232,15.7681159 L23.5536232,19.2173913" id="path3180"></path>
                    <polygon id="path3182" points="24.5391304 19.315942 25.1304348 19.315942 25.1304348 14.5855072 24.5391304 14.5855072"></polygon>
                    <path d="M27.2985507,18.8231884 L27.3971014,19.315942 C27.2,19.315942 27.1014493,19.4144928 27.0028986,19.4144928 C26.8057971,19.4144928 26.6086957,19.4144928 26.5101449,19.315942 C26.4115942,19.2173913 26.3130435,19.1188406 26.2144928,19.0202899 C26.2144928,18.9217391 26.115942,18.7246377 26.115942,18.3304348 L26.115942,16.3594203 L25.7217391,16.3594203 L25.7217391,15.8666667 L26.115942,15.8666667 L26.115942,14.9797101 L26.7072464,14.5855072 L26.7072464,15.7681159 L27.2985507,15.7681159 L27.2985507,16.2608696 L26.7072464,16.2608696 L26.7072464,18.2318841 C26.7072464,18.4289855 26.7072464,18.5275362 26.7072464,18.5275362 C26.7072464,18.5275362 26.8057971,18.626087 26.8057971,18.626087 C26.8057971,18.626087 26.9043478,18.626087 27.0028986,18.626087 C27.1014493,18.8231884 27.2,18.8231884 27.2985507,18.8231884" id="path3184"></path>
                    <path d="M30.1565217,19.315942 L30.1565217,18.8231884 C29.8608696,19.2173913 29.5652174,19.4144928 29.0724638,19.4144928 C28.8753623,19.4144928 28.6782609,19.4144928 28.4811594,19.315942 C28.284058,19.2173913 28.1855072,19.1188406 28.0869565,19.0202899 C27.9884058,18.9217391 27.9884058,18.7246377 27.8898551,18.626087 C27.8898551,18.5275362 27.8898551,18.3304348 27.8898551,18.0347826 L27.8898551,15.8666667 L28.4811594,15.8666667 L28.4811594,17.7391304 C28.4811594,18.0347826 28.4811594,18.2318841 28.4811594,18.3304348 C28.4811594,18.5275362 28.5797101,18.626087 28.6782609,18.7246377 C28.7768116,18.8231884 28.973913,18.8231884 29.0724638,18.8231884 C29.2695652,18.8231884 29.3681159,18.8231884 29.5652174,18.7246377 C29.7623188,18.626087 29.8608696,18.5275362 29.8608696,18.3304348 C29.9594203,18.1333333 29.9594203,17.9362319 29.9594203,17.6405797 L29.9594203,15.7681159 L30.5507246,15.7681159 L30.5507246,19.2173913" id="path3186"></path>
                    <path d="M31.5362319,19.315942 L31.5362319,15.8666667 L32.0289855,15.8666667 L32.0289855,16.3594203 C32.1275362,16.1623188 32.3246377,15.9652174 32.4231884,15.8666667 C32.5217391,15.7681159 32.6202899,15.7681159 32.8173913,15.7681159 C33.0144928,15.7681159 33.2115942,15.8666667 33.4086957,15.9652174 L33.2115942,16.457971 C33.1130435,16.3594203 32.915942,16.3594203 32.8173913,16.3594203 C32.7188406,16.3594203 32.6202899,16.3594203 32.5217391,16.457971 C32.4231884,16.5565217 32.3246377,16.6550725 32.3246377,16.7536232 C32.226087,16.9507246 32.226087,17.1478261 32.226087,17.4434783 L32.226087,19.2173913" id="path3188"></path>
                    <path d="M35.9710145,17.542029 C35.773913,17.6405797 35.4782609,17.7391304 34.9855072,17.7391304 C34.7884058,17.7391304 34.5913043,17.8376812 34.4927536,17.8376812 C34.3942029,17.8376812 34.2956522,17.9362319 34.2956522,18.0347826 C34.1971014,18.1333333 34.1971014,18.2318841 34.1971014,18.3304348 C34.1971014,18.5275362 34.2956522,18.626087 34.3942029,18.7246377 C34.4927536,18.8231884 34.6898551,18.9217391 34.8869565,18.9217391 C35.084058,18.9217391 35.2811594,18.9217391 35.4782609,18.8231884 C35.6753623,18.7246377 35.773913,18.626087 35.8724638,18.4289855 C35.9710145,18.3304348 35.9710145,18.1333333 35.9710145,17.8376812 L35.9710145,17.542029 Z M36.0695652,18.8231884 C35.8724638,19.0202899 35.6753623,19.1188406 35.4782609,19.2173913 C35.2811594,19.315942 35.084058,19.315942 34.7884058,19.315942 C34.3942029,19.315942 34.0985507,19.2173913 33.9014493,19.0202899 C33.7043478,18.8231884 33.6057971,18.626087 33.6057971,18.3304348 C33.6057971,18.1333333 33.6057971,18.0347826 33.7043478,17.8376812 C33.8028986,17.7391304 33.9014493,17.542029 34,17.542029 C34.0985507,17.4434783 34.2956522,17.4434783 34.3942029,17.3449275 C34.4927536,17.3449275 34.6898551,17.2463768 34.8869565,17.2463768 C35.3797101,17.1478261 35.6753623,17.1478261 35.9710145,17.0492754 C35.9710145,16.9507246 35.9710145,16.9507246 35.9710145,16.8521739 C35.9710145,16.6550725 35.8724638,16.457971 35.773913,16.3594203 C35.5768116,16.2608696 35.3797101,16.1623188 35.084058,16.1623188 C34.7884058,16.1623188 34.5913043,16.1623188 34.4927536,16.2608696 C34.3942029,16.3594203 34.2956522,16.5565217 34.1971014,16.7536232 L33.6057971,16.6550725 C33.7043478,16.457971 33.7043478,16.2608696 33.9014493,16.0637681 C34,15.8666667 34.1971014,15.7681159 34.3942029,15.6695652 C34.5913043,15.5710145 34.8869565,15.5710145 35.1826087,15.5710145 C35.4782609,15.5710145 35.6753623,15.5710145 35.8724638,15.6695652 C36.0695652,15.7681159 36.1681159,15.8666667 36.2666667,15.9652174 C36.3652174,16.0637681 36.3652174,16.1623188 36.4637681,16.3594203 C36.4637681,16.457971 36.4637681,16.6550725 36.4637681,16.8521739 L36.4637681,17.6405797 C36.4637681,18.2318841 36.4637681,18.5275362 36.4637681,18.626087 C36.4637681,18.7246377 36.5623188,18.9217391 36.5623188,19.0202899 L35.9710145,19.0202899 C36.0695652,19.2173913 36.0695652,19.0202899 36.0695652,18.8231884 L36.0695652,18.8231884 Z" id="path3190"></path>
                    <polygon id="path3192" points="37.4492754 19.315942 38.0405797 19.315942 38.0405797 14.5855072 37.4492754 14.5855072"></polygon>
                    <path d="M41.2927536,16.9507246 C41.2927536,17.542029 41.4898551,17.9362319 41.7855072,18.3304348 C42.0811594,18.626087 42.4753623,18.8231884 42.9681159,18.8231884 C43.4608696,18.8231884 43.8550725,18.626087 44.1507246,18.3304348 C44.4463768,18.0347826 44.6434783,17.542029 44.6434783,16.9507246 C44.6434783,16.5565217 44.5449275,16.2608696 44.4463768,15.9652174 C44.3478261,15.6695652 44.1507246,15.4724638 43.8550725,15.2753623 C43.5594203,15.0782609 43.3623188,15.0782609 42.9681159,15.0782609 C42.4753623,15.0782609 42.1797101,15.2753623 41.7855072,15.5710145 C41.4898551,15.7681159 41.2927536,16.2608696 41.2927536,16.9507246 M40.7014493,16.9507246 C40.7014493,16.1623188 40.8985507,15.5710145 41.2927536,15.0782609 C41.6869565,14.5855072 42.2782609,14.3884058 42.9681159,14.3884058 C43.3623188,14.3884058 43.7565217,14.4869565 44.1507246,14.684058 C44.5449275,14.8811594 44.742029,15.1768116 44.9391304,15.5710145 C45.1362319,15.9652174 45.2347826,16.3594203 45.2347826,16.8521739 C45.2347826,17.3449275 45.1362319,17.7391304 44.9391304,18.1333333 C44.742029,18.5275362 44.4463768,18.8231884 44.1507246,19.0202899 C43.7565217,19.2173913 43.3623188,19.315942 42.9681159,19.315942 C42.4753623,19.315942 42.0811594,19.2173913 41.7855072,19.0202899 C41.3913043,18.8231884 41.1942029,18.5275362 40.9971014,18.1333333 C40.8,17.8376812 40.7014493,17.4434783 40.7014493,16.9507246" id="path3194"></path>
                    <path d="M45.9246377,19.315942 L45.9246377,15.8666667 L46.4173913,15.8666667 L46.4173913,16.3594203 C46.515942,16.1623188 46.7130435,15.9652174 46.8115942,15.8666667 C46.9101449,15.7681159 47.0086957,15.7681159 47.2057971,15.7681159 C47.4028986,15.7681159 47.6,15.8666667 47.7971014,15.9652174 L47.6,16.457971 C47.5014493,16.3594203 47.3043478,16.3594203 47.2057971,16.3594203 C47.1072464,16.3594203 47.0086957,16.3594203 46.9101449,16.457971 C46.8115942,16.5565217 46.7130435,16.6550725 46.7130435,16.7536232 C46.6144928,16.9507246 46.6144928,17.1478261 46.6144928,17.4434783 L46.6144928,19.2173913" id="path3196"></path>
                    <path d="M48.5855072,17.542029 C48.5855072,18.0347826 48.684058,18.3304348 48.8811594,18.5275362 C49.0782609,18.7246377 49.2753623,18.8231884 49.5710145,18.8231884 C49.8666667,18.8231884 50.0637681,18.7246377 50.2608696,18.5275362 C50.457971,18.3304348 50.5565217,18.0347826 50.5565217,17.542029 C50.5565217,17.1478261 50.457971,16.7536232 50.2608696,16.5565217 C50.0637681,16.3594203 49.8666667,16.2608696 49.5710145,16.2608696 C49.2753623,16.2608696 49.0782609,16.3594203 48.8811594,16.5565217 C48.684058,16.7536232 48.5855072,17.1478261 48.5855072,17.542029 M48.0927536,19.6115942 L48.684058,19.7101449 C48.684058,19.9072464 48.7826087,20.0057971 48.8811594,20.1043478 C48.9797101,20.2028986 49.2753623,20.3014493 49.4724638,20.3014493 C49.7681159,20.3014493 49.9652174,20.2028986 50.0637681,20.1043478 C50.2608696,20.0057971 50.3594203,19.8086957 50.3594203,19.6115942 C50.3594203,19.5130435 50.3594203,19.2173913 50.3594203,18.8231884 C50.0637681,19.1188406 49.7681159,19.315942 49.373913,19.315942 C48.8811594,19.315942 48.4869565,19.1188406 48.2898551,18.8231884 C47.9942029,18.5275362 47.8956522,18.0347826 47.8956522,17.6405797 C47.8956522,17.3449275 47.9942029,17.0492754 48.0927536,16.7536232 C48.1913043,16.457971 48.3884058,16.2608696 48.5855072,16.0637681 C48.7826087,15.8666667 49.0782609,15.8666667 49.373913,15.8666667 C49.7681159,15.8666667 50.1623188,16.0637681 50.3594203,16.3594203 L50.3594203,15.9652174 L50.8521739,15.9652174 L50.8521739,18.9217391 C50.8521739,19.4144928 50.7536232,19.8086957 50.6550725,20.1043478 C50.5565217,20.3014493 50.3594203,20.4985507 50.1623188,20.5971014 C49.9652174,20.6956522 49.6695652,20.7942029 49.2753623,20.7942029 C48.8811594,20.7942029 48.4869565,20.6956522 48.2898551,20.4985507 C48.1913043,20.2028986 48.0927536,19.9072464 48.0927536,19.6115942" id="path3198"></path>
                    <path d="M54.1043478,17.542029 C53.9072464,17.6405797 53.6115942,17.7391304 53.1188406,17.7391304 C52.9217391,17.7391304 52.7246377,17.8376812 52.626087,17.8376812 C52.5275362,17.8376812 52.4289855,17.9362319 52.4289855,18.0347826 C52.3304348,18.1333333 52.3304348,18.2318841 52.3304348,18.3304348 C52.3304348,18.5275362 52.4289855,18.626087 52.5275362,18.7246377 C52.626087,18.8231884 52.8231884,18.9217391 53.0202899,18.9217391 C53.2173913,18.9217391 53.4144928,18.9217391 53.6115942,18.8231884 C53.8086957,18.7246377 53.9072464,18.626087 54.0057971,18.4289855 C54.1043478,18.3304348 54.1043478,18.1333333 54.1043478,17.8376812 L54.1043478,17.542029 Z M54.1043478,18.8231884 C53.9072464,19.0202899 53.7101449,19.1188406 53.5130435,19.2173913 C53.315942,19.315942 53.1188406,19.315942 52.8231884,19.315942 C52.4289855,19.315942 52.1333333,19.2173913 51.9362319,19.0202899 C51.7391304,18.8231884 51.6405797,18.626087 51.6405797,18.3304348 C51.6405797,18.1333333 51.6405797,18.0347826 51.7391304,17.8376812 C51.8376812,17.7391304 51.9362319,17.542029 52.0347826,17.542029 C52.1333333,17.4434783 52.3304348,17.4434783 52.4289855,17.3449275 C52.5275362,17.3449275 52.7246377,17.2463768 52.9217391,17.2463768 C53.4144928,17.1478261 53.7101449,17.1478261 54.0057971,17.0492754 C54.0057971,16.9507246 54.0057971,16.9507246 54.0057971,16.8521739 C54.0057971,16.6550725 53.9072464,16.457971 53.8086957,16.3594203 C53.6115942,16.2608696 53.4144928,16.1623188 53.1188406,16.1623188 C52.8231884,16.1623188 52.626087,16.1623188 52.5275362,16.2608696 C52.4289855,16.3594203 52.3304348,16.5565217 52.2318841,16.7536232 L51.6405797,16.6550725 C51.7391304,16.457971 51.7391304,16.2608696 51.9362319,16.0637681 C52.0347826,15.8666667 52.2318841,15.7681159 52.4289855,15.6695652 C52.626087,15.5710145 52.9217391,15.5710145 53.2173913,15.5710145 C53.5130435,15.5710145 53.7101449,15.5710145 53.9072464,15.6695652 C54.1043478,15.7681159 54.2028986,15.8666667 54.3014493,15.9652174 C54.4,16.0637681 54.4,16.1623188 54.4985507,16.3594203 C54.4985507,16.457971 54.4985507,16.6550725 54.4985507,16.8521739 L54.4985507,17.6405797 C54.4985507,18.2318841 54.4985507,18.5275362 54.4985507,18.626087 C54.4985507,18.7246377 54.5971014,18.9217391 54.5971014,19.0202899 L54.2028986,19.0202899 C54.2028986,19.2173913 54.1043478,19.0202899 54.1043478,18.8231884 L54.1043478,18.8231884 Z" id="path3200"></path>
                    <path d="M55.5826087,19.315942 L55.5826087,15.8666667 L56.0753623,15.8666667 L56.0753623,16.3594203 C56.3710145,15.9652174 56.6666667,15.7681159 57.1594203,15.7681159 C57.3565217,15.7681159 57.5536232,15.7681159 57.7507246,15.8666667 C57.9478261,15.9652174 58.0463768,16.0637681 58.1449275,16.1623188 C58.2434783,16.2608696 58.2434783,16.457971 58.342029,16.5565217 C58.342029,16.6550725 58.342029,16.8521739 58.342029,17.1478261 L58.342029,19.2173913 L57.7507246,19.2173913 L57.7507246,17.1478261 C57.7507246,16.9507246 57.7507246,16.7536232 57.6521739,16.6550725 C57.6521739,16.5565217 57.5536232,16.457971 57.4550725,16.3594203 C57.3565217,16.2608696 57.1594203,16.2608696 57.0608696,16.2608696 C56.7652174,16.2608696 56.5681159,16.3594203 56.3710145,16.457971 C56.173913,16.6550725 56.0753623,16.9507246 56.0753623,17.3449275 L56.0753623,19.2173913" id="path3202"></path>
                    <path d="M59.2289855,15.8666667 L59.8289855,15.8666667 L59.8289855,19.315942 L59.2289855,19.315942 L59.2289855,15.8666667 Z M59.2289855,14.5855072 L59.8289855,14.5855072 L59.8289855,15.2753623 L59.2289855,15.2753623 L59.2289855,14.5855072 L59.2289855,14.5855072 Z" id="path3204"></path>
                    <path d="M60.4115942,19.315942 L60.4115942,18.8231884 L62.5797101,16.2608696 C62.284058,16.2608696 62.0869565,16.2608696 61.8898551,16.2608696 L60.5101449,16.2608696 L60.5101449,15.7681159 L63.3681159,15.7681159 L63.3681159,16.1623188 L61.4956522,18.3304348 L61.1014493,18.7246377 C61.3971014,18.7246377 61.5942029,18.7246377 61.7913043,18.7246377 L63.3681159,18.7246377 L63.3681159,19.2173913" id="path3206"></path>
                    <path d="M66.226087,17.542029 C66.0289855,17.6405797 65.7333333,17.7391304 65.2405797,17.7391304 C65.0434783,17.7391304 64.8463768,17.8376812 64.7478261,17.8376812 C64.6492754,17.8376812 64.5507246,17.9362319 64.5507246,18.0347826 C64.4521739,18.1333333 64.4521739,18.2318841 64.4521739,18.3304348 C64.4521739,18.5275362 64.5507246,18.626087 64.6492754,18.7246377 C64.7478261,18.8231884 64.9449275,18.9217391 65.142029,18.9217391 C65.3391304,18.9217391 65.5362319,18.9217391 65.7333333,18.8231884 C65.9304348,18.7246377 66.0289855,18.626087 66.1275362,18.4289855 C66.226087,18.3304348 66.226087,18.1333333 66.226087,17.8376812 L66.226087,17.542029 Z M66.3246377,18.8231884 C66.1275362,19.0202899 65.9304348,19.1188406 65.7333333,19.2173913 C65.5362319,19.315942 65.3391304,19.315942 65.0434783,19.315942 C64.6492754,19.315942 64.3536232,19.2173913 64.1565217,19.0202899 C63.9594203,18.8231884 63.8608696,18.626087 63.8608696,18.3304348 C63.8608696,18.1333333 63.8608696,18.0347826 63.9594203,17.8376812 C64.057971,17.7391304 64.1565217,17.542029 64.2550725,17.542029 C64.3536232,17.4434783 64.5507246,17.4434783 64.6492754,17.3449275 C64.7478261,17.3449275 64.9449275,17.2463768 65.142029,17.2463768 C65.6347826,17.1478261 65.9304348,17.1478261 66.226087,17.0492754 C66.226087,16.9507246 66.226087,16.9507246 66.226087,16.8521739 C66.226087,16.6550725 66.1275362,16.457971 66.0289855,16.3594203 C65.8318841,16.2608696 65.6347826,16.1623188 65.3391304,16.1623188 C65.0434783,16.1623188 64.8463768,16.1623188 64.7478261,16.2608696 C64.6492754,16.3594203 64.5507246,16.5565217 64.4521739,16.7536232 L63.8608696,16.6550725 C63.9594203,16.457971 63.9594203,16.2608696 64.1565217,16.0637681 C64.2550725,15.8666667 64.4521739,15.7681159 64.6492754,15.6695652 C64.8463768,15.5710145 65.142029,15.5710145 65.4376812,15.5710145 C65.7333333,15.5710145 65.9304348,15.5710145 66.1275362,15.6695652 C66.3246377,15.7681159 66.4231884,15.8666667 66.5217391,15.9652174 C66.6202899,16.0637681 66.6202899,16.1623188 66.7188406,16.3594203 C66.7188406,16.457971 66.7188406,16.6550725 66.7188406,16.8521739 L66.7188406,17.6405797 C66.7188406,18.2318841 66.7188406,18.5275362 66.7188406,18.626087 C66.7188406,18.7246377 66.8173913,18.9217391 66.8173913,19.0202899 L66.226087,19.0202899 C66.3246377,19.2173913 66.3246377,19.0202899 66.3246377,18.8231884 L66.3246377,18.8231884 Z" id="path3208"></path>
                    <path d="M68.9855072,18.8231884 L69.084058,19.315942 C68.8869565,19.315942 68.7884058,19.4144928 68.6898551,19.4144928 C68.4927536,19.4144928 68.2956522,19.4144928 68.1971014,19.315942 C68.0985507,19.2173913 68,19.1188406 67.9014493,19.0202899 C67.9014493,18.9217391 67.8028986,18.7246377 67.8028986,18.3304348 L67.8028986,16.3594203 L67.4086957,16.3594203 L67.4086957,15.8666667 L67.8028986,15.8666667 L67.8028986,14.9797101 L68.3942029,14.5855072 L68.3942029,15.7681159 L68.9855072,15.7681159 L68.9855072,16.2608696 L68.3942029,16.2608696 L68.3942029,18.2318841 C68.3942029,18.4289855 68.3942029,18.5275362 68.3942029,18.5275362 C68.3942029,18.5275362 68.4927536,18.626087 68.4927536,18.626087 C68.4927536,18.626087 68.5913043,18.626087 68.6898551,18.626087 C68.7884058,18.8231884 68.8869565,18.8231884 68.9855072,18.8231884" id="path3210"></path>
                    <path d="M69.5768116,15.8666667 L70.1768116,15.8666667 L70.1768116,19.315942 L69.5768116,19.315942 L69.5768116,15.8666667 Z M69.5768116,14.5855072 L70.1768116,14.5855072 L70.1768116,15.2753623 L69.5768116,15.2753623 L69.5768116,14.5855072 L69.5768116,14.5855072 Z" id="path3212"></path>
                    <path d="M71.4492754,17.542029 C71.4492754,17.9362319 71.5478261,18.3304348 71.7449275,18.5275362 C71.942029,18.7246377 72.1391304,18.8231884 72.4347826,18.8231884 C72.7304348,18.8231884 72.9275362,18.7246377 73.1246377,18.5275362 C73.3217391,18.3304348 73.4202899,17.9362319 73.4202899,17.542029 C73.4202899,17.1478261 73.3217391,16.7536232 73.1246377,16.5565217 C72.9275362,16.3594203 72.7304348,16.2608696 72.4347826,16.2608696 C72.1391304,16.2608696 71.942029,16.3594203 71.7449275,16.5565217 C71.5478261,16.8521739 71.4492754,17.1478261 71.4492754,17.542029 M70.857971,17.542029 C70.857971,16.9507246 71.0550725,16.457971 71.3507246,16.1623188 C71.6463768,15.8666667 72.0405797,15.7681159 72.4347826,15.7681159 C72.9275362,15.7681159 73.3217391,15.9652174 73.6173913,16.2608696 C73.9130435,16.5565217 74.1101449,16.9507246 74.1101449,17.542029 C74.1101449,17.9362319 74.0115942,18.3304348 73.9130435,18.626087 C73.8144928,18.9217391 73.6173913,19.1188406 73.3217391,19.2173913 C73.026087,19.315942 72.8289855,19.4144928 72.5333333,19.4144928 C72.0405797,19.4144928 71.6463768,19.2173913 71.3507246,18.9217391 C70.9565217,18.626087 70.857971,18.1333333 70.857971,17.542029" id="path3214"></path>
                    <path d="M74.8,19.315942 L74.8,15.8666667 L75.2927536,15.8666667 L75.2927536,16.3594203 C75.5884058,15.9652174 75.884058,15.7681159 76.3768116,15.7681159 C76.573913,15.7681159 76.7710145,15.7681159 76.9681159,15.8666667 C77.1652174,15.9652174 77.2637681,16.0637681 77.3623188,16.1623188 C77.4608696,16.2608696 77.4608696,16.457971 77.5594203,16.5565217 C77.5594203,16.6550725 77.5594203,16.8521739 77.5594203,17.1478261 L77.5594203,19.2173913 L76.9681159,19.2173913 L76.9681159,17.1478261 C76.9681159,16.9507246 76.9681159,16.7536232 76.8695652,16.6550725 C76.8695652,16.5565217 76.7710145,16.457971 76.6724638,16.3594203 C76.573913,16.2608696 76.3768116,16.2608696 76.2782609,16.2608696 C75.9826087,16.2608696 75.7855072,16.3594203 75.5884058,16.457971 C75.3913043,16.6550725 75.2927536,16.9507246 75.2927536,17.3449275 L75.2927536,19.2173913" id="path3216"></path>
                </g>
            </g>
        </g>
    </g>
</svg>