<?xml version="1.0" encoding="UTF-8"?>
<svg width="161px" height="75px" viewBox="0 0 161 75" version="1.1" xmlns="http://www.w3.org/2000/svg" xmlns:xlink="http://www.w3.org/1999/xlink">
    <!-- Generator: Sketch 57.1 (83088) - https://sketch.com -->
    <title>logo-color</title>
    <desc>Created with Sketch.</desc>
    <g id="Page-1" stroke="none" stroke-width="1" fill="none" fill-rule="evenodd">
        <g id="logo-color" transform="translate(-1.000000, 0.000000)" fill-rule="nonzero">
            <path d="M60.353,26.441 C59.3439059,26.4330986 58.3776703,26.8483913 57.689,27.586 C56.9664442,28.2944373 56.5644273,29.267152 56.576,30.279 C56.5678245,31.2922452 56.9691683,32.2658555 57.689,32.979 C58.3723932,33.7257313 59.3407984,34.1470458 60.353,34.138 C61.3678569,34.1500713 62.3421358,33.7400774 63.043,33.006 C64.1394562,31.9103321 64.4705527,30.2633204 63.8826854,28.8290553 C63.2948181,27.3947902 61.9030273,26.4539443 60.353,26.443" id="Path_1" fill="#676C5F"></path>
            <rect id="Rectangle_3" fill="#676C5F" x="57.145" y="39.58" width="6.457" height="22.663"></rect>
            <path d="M130.384,38.827 C127.202193,38.7236025 124.125564,39.9732218 121.917,42.266 C117.561583,47.3013744 117.498488,54.7515829 121.768,59.86 C124.036473,62.114528 127.150863,63.3073423 130.345,63.145 C132.488019,63.2005546 134.608995,62.7010557 136.502,61.695 C138.332318,60.6324659 139.852955,59.1097602 140.913,57.278 L135.685,54.62 C135.166059,55.4980386 134.423467,56.2226871 133.533,56.72 C132.586256,57.1963286 131.536466,57.4312948 130.477,57.404 C129.133809,57.4788203 127.811189,57.048648 126.769,56.198 C125.777336,55.2199953 125.158967,53.9259493 125.021,52.54 L141.776,52.54 C141.822,52.08 141.852,51.724 141.868,51.489 C141.884,51.254 141.888,51.034 141.888,50.83 C141.888,47.116 140.857667,44.1873333 138.797,42.044 C136.574929,39.8279232 133.517915,38.6571519 130.384,38.822 L130.384,38.827 Z M125.225,48.564 C125.368733,47.3164433 125.962493,46.1641223 126.895,45.323 C127.888167,44.5492449 129.12664,44.1587835 130.384,44.223 C131.629752,44.1535873 132.857469,44.545147 133.833,45.323 C134.730525,46.1742965 135.277625,47.3301975 135.367,48.564 L125.225,48.564 Z" id="Path_2" fill="#676C5F"></path>
            <path d="M159.867,51.648 C158.375876,50.3069965 156.593224,49.3312791 154.66,48.798 C154.477,48.743 154.212,48.649 153.86,48.544 C150.921,47.573 149.449,46.521 149.449,45.404 C149.4506,44.7615247 149.7872,44.1664102 150.337,43.834 C151.803511,43.0181544 153.592884,43.0421396 155.037,43.897 C155.696177,44.3636597 156.171575,45.0459826 156.381,45.826 L161.135,43.419 C160.479777,41.9423682 159.354728,40.7237991 157.935,39.953 C154.084328,38.0663006 149.518373,38.3848645 145.967,40.788 C144.296855,42.0651967 143.340975,44.0662203 143.397,46.168 C143.361676,47.5767651 143.908217,48.9378728 144.908,49.931 C146.506711,51.2860736 148.356064,52.313869 150.351,52.956 C150.751,53.1106667 151.284333,53.303 151.951,53.533 C154.101,54.2736667 155.176,55.1906667 155.176,56.284 C155.189832,56.9514156 154.842255,57.5743011 154.267,57.913 C153.506508,58.3424235 152.63907,58.545404 151.767,58.498 C150.808234,58.5307548 149.862876,58.2655934 149.061,57.739 C148.353205,57.2542262 147.869701,56.5055525 147.719,55.661 L142.742,58.273 C143.340455,59.8300968 144.505267,61.1034968 146.003,61.838 C147.831711,62.753108 149.859036,63.1998068 151.903,63.138 C154.371524,63.2711095 156.813377,62.5725317 158.838,61.154 C160.518688,59.8959486 161.477452,57.8951314 161.405,55.797 C161.460019,54.2641132 160.904745,52.771995 159.861,51.648" id="Path_3" fill="#676C5F"></path>
            <path d="M79.848,38.734 C77.54178,38.6581582 75.2850601,39.4133555 73.489,40.862 L73.478,39.58 L67.278,39.58 L67.278,72.547 L73.757,72.547 L73.657,61.038 C75.4877674,62.3332545 77.6939068,62.990036 79.935,62.907 C82.8318463,63.0655856 85.6458356,61.9098662 87.595,59.761 C89.427,57.644 90.345,54.716 90.345,50.925 C90.345,47.134 89.417,44.17 87.555,41.986 C85.6183901,39.7811741 82.7796963,38.5832202 79.849,38.734 M82.841,55.661 C80.5420128,57.9360062 76.8399872,57.9360062 74.541,55.661 C73.4780225,54.3012884 72.9491255,52.5997124 73.054,50.877 C72.9587064,49.1383849 73.4953745,47.4239594 74.565,46.05 C75.5800835,44.8631581 77.0847422,44.2092953 78.645,44.277 C80.230489,44.1968668 81.7658988,44.8445373 82.815,46.036 C83.8868591,47.414141 84.4232758,49.1338717 84.325,50.877 C84.4303417,52.5997688 83.9013943,54.3015067 82.838,55.661" id="Path_4" fill="#676C5F"></path>
            <path d="M105.642,38.92 C103.394654,38.8362217 101.182621,39.4975114 99.35,40.801 L99.459,26.444 L92.981,26.444 L92.981,62.244 L99.181,62.244 L99.192,60.961 C103.494785,64.1811273 109.52064,63.7000357 113.258,59.838 C115.118,57.6553333 116.047667,54.6756667 116.047,50.899 C116.047,47.107 115.128,44.179 113.298,42.065 C111.349127,39.9155151 108.535145,38.7590639 105.638,38.917 M108.519,55.786 C107.470562,56.9798766 105.933827,57.6289003 104.347,57.548 C102.786567,57.6139602 101.282202,56.9600167 100.266,55.774 C99.1966628,54.3995522 98.6603603,52.6848047 98.756,50.946 C98.6496901,49.2232606 99.1791457,47.5213881 100.244,46.163 C102.542987,43.8879938 106.245013,43.8879938 108.544,46.163 C109.607661,47.5219675 110.136655,49.2235008 110.031,50.946 C110.129488,52.6888471 109.593036,54.4083368 108.521,55.786" id="Path_5" fill="#676C5F"></path>
            <path d="M105.555,64.32 C105.477,64.32 105.403,64.309 105.325,64.308 C99.1448428,69.8281098 91.1353465,72.8571505 82.849,72.808 C80.1977083,72.7852561 77.5587685,72.4438055 74.989,71.791 L75.007,73.759 C87.0525375,76.4119619 99.6199642,72.749179 108.354,64.04 C107.432563,64.228064 106.494432,64.3222122 105.554,64.321" id="Path_6" fill="#BFD785"></path>
            <path d="M66.032,68.237 C64.5450672,67.4265571 63.1261092,66.4971948 61.789,65.458 C62.502,64.827 63.189,64.163 63.847,63.48 L60.874,63.48 C60.661,63.665 60.454,63.852 60.233,64.035 C60.233,64.035 59.966,63.835 59.526,63.48 L56.298,63.48 C57.0426948,64.2249157 57.8393666,64.9159884 58.682,65.548 C58.682,65.548 51.32,72.203 37.728,72.421 C27.0618056,72.4787599 16.9928908,67.5034137 10.559,58.996 C16.4935855,54.3995241 23.7631946,51.8598997 31.269,51.761 C40.517,51.624 47.677,54.237 49.7,55.331 C51.5463564,58.0834426 53.6202907,60.676195 55.9,63.082 L55.9,60.053 C54.1764865,58.2108345 52.6835163,56.1658078 51.454,53.963 C48.08,47.786 48.171,38.23 48.98,32.649 C48.98,32.649 50.936,33.209 52.355,33.712 C55.4455091,34.8397828 58.3610328,36.3988809 61.015,38.343 L64.339,38.343 C62.453,36.994 61.088,36.053 60.005,35.357 C58.7783426,35.281704 57.6277629,34.7370318 56.792,33.836 C56.6413919,33.6777053 56.5001517,33.5107547 56.369,33.336 C55.938,33.136 55.482,32.928 54.969,32.69 C53.137183,31.8639872 51.2547224,31.1552254 49.333,30.568 C50.482257,22.8801526 54.4092154,15.8800772 60.371,10.892 C60.371,10.892 72.792,21.075 72.476,37.038 C72.469,37.39 72.45,37.847 72.43,38.338 L74.43,38.338 C74.44,37.991 74.457,37.647 74.457,37.299 C74.4626147,31.8226426 73.270784,26.4112811 70.965,21.444 C77.6013955,24.0366272 84.7153742,25.1805236 91.83,24.799 C101.616,24.308 111.137,17.499 111.137,17.499 C117.171,25.729 117.26,35.739 117.26,35.739 C115.635514,37.1728579 113.804728,38.3543907 111.829,39.244 C112.480317,39.6340559 113.084331,40.0981399 113.629,40.627 C114.924253,39.9727198 116.160231,39.2071764 117.323,38.339 C117.267895,40.6787852 116.983874,43.0075571 116.475,45.292 C116.961964,46.8470746 117.2279,48.4628853 117.265,50.092 C117.316,49.953 117.365,49.816 117.417,49.675 C117.540422,47.8835369 118.012596,46.1334335 118.807,44.523 C119.271578,42.143712 119.507,39.7252202 119.507,37.301 C119.507,16.733 103.032,0.001 82.776,0.001 C74.6289763,0.0664917296 66.7428557,2.88160424 60.396,7.99 C53.9699101,2.82043935 45.9703625,0.001 37.723,0.001 C17.472,0.001 0.995,16.737 0.995,37.301 C0.995,57.865 17.472,74.608 37.723,74.608 C45.9021325,74.608 53.8397137,71.83534 60.241,66.744 C62.0478464,68.1705953 63.9850718,69.4237987 66.027,70.487 L66.032,68.237 Z M82.781,2.191 C93.4480346,2.1311784 103.517748,7.10876819 109.948,15.62 C104.012731,20.2138046 96.7446708,22.753133 89.24,22.855 C82.4365577,22.7983009 75.7164464,21.3520546 69.492,18.605 C67.5094977,15.1436518 64.987085,12.0210183 62.02,9.355 C63.181,8.323 70.371,2.393 82.781,2.189 L82.781,2.191 Z M37.754,1.972 C45.3586028,2.10027143 52.7123868,4.71320198 58.693,9.412 C52.5785935,14.6627741 48.5167327,21.9056231 47.225,29.861 C39.2299271,27.9574926 30.9369656,27.6567028 22.825,28.976 C9.759,30.942 3.176,36.262 3.176,36.262 C3.576,17.251 18.933,1.835 37.752,1.972 L37.754,1.972 Z M3.252,38.872 C9.174,33.315 23.235,30.846 23.235,30.846 C38.901,29.129 46.912,32.109 46.912,32.109 C45.426,45.591 48.848,52.956 48.848,52.956 C42.448,49.615 31.173,49.834 28.186,49.983 C18.401,50.462 9.372,57.113 9.372,57.113 C3.338,48.888 3.252,38.872 3.252,38.872 L3.252,38.872 Z" id="Path_7" fill="#BFD785"></path>
        </g>
    </g>
</svg>