<?xml version="1.0" encoding="UTF-8"?>
<svg width="93px" height="26px" viewBox="0 0 93 26" version="1.1" xmlns="http://www.w3.org/2000/svg" xmlns:xlink="http://www.w3.org/1999/xlink">
    <!-- Generator: Sketch 57.1 (83088) - https://sketch.com -->
    <title>logo-fao</title>
    <desc>Created with Sketch.</desc>
    <g id="Page-1" stroke="none" stroke-width="1" fill="none" fill-rule="evenodd">
        <g id="Artboard" transform="translate(-9.000000, -21.000000)" fill="#FFFFFF" fill-rule="nonzero">
            <g id="logo-fao" transform="translate(9.000000, 21.000000)">
                <path d="M91.4,5.8 C91.4,5.1 91.2,4.8 90.8,4.8 C90.3,4.8 90.1,5.3 90.1,5.8 L91.4,5.8 L91.4,5.8 Z M92,7.8 C91.8,7.9 91.4,8 90.9,8 C89.7,8 89.2,7.1 89.2,6.2 C89.2,5.1 89.8,4.2 90.7,4.2 C91.5,4.2 92.2,4.7 92.2,6.2 L92.2,6.4 L90.1,6.4 C90.1,7 90.4,7.4 91,7.4 C91.5,7.4 91.8,7.2 92,7.1 L92,7.8 L92,7.8 Z" id="Shape"></path>
                <g id="Group">
                    <path d="M21.3,15.3 L21.6,15.5 L21.6,15.5 C21.5,15.6 21.4,15.7 21.4,15.8 C21.4,15.9 21.3,16 21.4,16.1 C21.4,16.1 21.5,16.2 21.5,16.2 C21.6,16.2 21.8,16.1 21.9,16 C22.1,15.8 22.3,15.5 22.7,15.7 C23.1,15.8 23.2,16.2 23.1,16.7 C23,16.8 23,17 22.9,17.1 L22.9,17.1 L22.6,16.9 L22.6,16.9 C22.6,16.9 22.8,16.7 22.8,16.5 C22.9,16.4 22.8,16.1 22.6,16 C22.4,15.9 22.3,16.1 22.1,16.2 C21.9,16.4 21.7,16.6 21.3,16.5 C21.1,16.4 21,16.3 21,16.2 C20.9,16 20.9,15.8 21,15.6 C21.1,15.6 21.1,15.4 21.3,15.3 L21.3,15.3 L21.3,15.3 Z M20.4,17.1 L22.3,18.2 L22.1,18.5 L20.2,17.4 L20.4,17.1 L20.4,17.1 Z M19.7,18.2 L21.3,19.6 L21,20 C21,20 19.5,19.6 19.2,19.5 C19.4,19.7 20.3,20.7 20.3,20.7 L20,21 L18.5,19.4 L18.9,19.1 C18.9,19.1 20.4,19.5 20.6,19.6 C20.4,19.4 19.4,18.6 19.4,18.6 L19.7,18.2 L19.7,18.2 Z M17.8,21.5 C17.9,21.5 18,21.4 18.1,21.3 C18.2,21.2 18.3,21.2 18.4,21.1 C18.3,21 17.7,20.6 17.6,20.5 C17.7,20.7 17.8,21.4 17.8,21.5 L17.8,21.5 Z M17.6,20.1 L19.5,21.5 L19.2,21.7 C19.2,21.7 18.8,21.4 18.8,21.4 C18.8,21.4 18.6,21.5 18.4,21.7 C18.2,21.8 18,21.9 18,21.9 C18,21.9 18.1,22.4 18.1,22.4 L17.7,22.6 L17.4,20.3 L17.6,20.1 L17.6,20.1 Z M15.5,21.4 C15.5,21.5 15.7,22 15.7,22 C15.8,22 16,21.9 16,21.9 C16.1,21.9 16.2,21.8 16.3,21.7 C16.3,21.7 16.3,21.6 16.3,21.6 C16.3,21.6 16.3,21.5 16.3,21.5 C16.3,21.4 16.2,21.4 16.2,21.3 C16.1,21.2 15.9,21.3 15.8,21.3 C15.7,21.3 15.5,21.3 15.5,21.4 L15.5,21.4 Z M16.3,21 C16.4,21.1 16.5,21.2 16.6,21.4 C16.6,21.5 16.6,21.6 16.6,21.6 C16.6,21.9 16.4,22.1 16,22.3 C16,22.3 15.8,22.4 15.8,22.4 C15.8,22.5 16,23.2 16,23.2 L15.6,23.3 L15,21.2 L15.6,21 C15.9,20.9 16.1,20.9 16.3,21 L16.3,21 Z M9.5,20.5 C9.5,20.5 9.8,20.7 10.3,20.8 C10.6,20.9 10.9,21 11.2,21.1 L11.1,21.4 C11.1,21.4 10.8,21.4 10.4,21.2 C10.4,21.3 9.8,22.9 9.8,22.9 L9.4,22.8 C9.4,22.8 10,21.2 10,21.1 C9.6,20.9 9.3,20.8 9.3,20.8 L9.5,20.5 L9.5,20.5 Z M7.2,20.7 C7.2,20.7 7.4,20.8 7.5,20.9 C7.6,21 7.8,21.1 7.8,21.1 C7.8,21 8,20.3 8,20.1 C7.9,20.2 7.3,20.6 7.2,20.7 L7.2,20.7 Z M8.2,19.7 L8.5,19.9 L8.1,22.2 L7.7,22 C7.7,22 7.8,21.5 7.8,21.5 C7.8,21.5 7.6,21.4 7.4,21.2 C7.2,21 7,20.9 7,20.9 C7,20.9 6.5,21.2 6.5,21.2 L6.2,20.9 L8.2,19.7 L8.2,19.7 L8.2,19.7 Z M6.6,18.3 L6.9,18.6 L5.3,20 L5,19.7 L6.6,18.3 L6.6,18.3 L6.6,18.3 Z M5.4,16.3 C5.4,16.3 5.6,16.7 5.7,16.9 C5.8,17.2 6,17.5 6,17.5 L5.7,17.7 C5.7,17.7 5.5,17.3 5.3,16.9 C5.2,16.9 4.9,17.1 4.8,17.1 C4.8,17.2 5.2,17.9 5.2,17.9 L5,18 C5,18 4.6,17.3 4.6,17.2 C4.5,17.2 3.8,17.6 3.8,17.6 L3.6,17.2 L5.4,16.3 L5.4,16.3 L5.4,16.3 Z M24.4,13 C24.4,9.6 22.9,6.6 20.6,4.5 L16.1,16 C16.4,17.9 15.8,19.4 14.5,19.8 C13.6,20.1 13.6,20.5 13.6,21.8 C13.6,21.9 13.6,21.7 13.6,22 C13.6,22.9 13.7,23.7 13.7,24.2 C19.7,24 24.4,19 24.4,13 L24.4,13 Z M13.2,12.7 L13.3,12.3 C13.5,11.3 14.2,11.4 14.7,10.5 C14.7,10.5 14.7,10.5 14.7,10.5 C14.7,10.5 17.2,5.2 18.2,3 C16.7,2.2 15,1.8 13.2,1.8 C11.4,1.8 9.7,2.2 8.2,3 C9.2,5.2 11.7,10.4 11.7,10.5 C11.7,10.5 11.7,10.5 11.7,10.5 C12.2,11.5 12.9,11.4 13.1,12.3 L13.2,12.7 L13.2,12.7 L13.2,12.7 Z M13.1,14 C12.3,13.8 11.4,13.1 11.3,12.1 C11.3,11.7 11.2,11.6 11.3,10.9 L7.8,3.1 C7.5,3.3 7.2,3.4 7,3.6 C8,5.9 11.2,13 11.2,13 C11.7,14.1 12.6,14.1 12.9,14.7 C13.1,15.1 13.1,15.4 13.1,15.4 L13.2,15.4 C13.2,15.4 13.2,15 13.4,14.7 C13.7,14.1 14.6,14.1 15.1,13 C15.1,13 18.3,5.9 19.3,3.6 C19,3.4 18.8,3.3 18.5,3.1 L15,10.9 C15.1,11.6 15,11.7 15,12.1 C14.9,13.1 13.9,13.8 13.1,14 L13.1,14 L13.1,14 Z M13.1,16.9 C11.3,16.5 10.6,14.8 10.6,13.4 L6.6,3.7 C6.3,3.9 6.1,4.1 5.8,4.3 C6.7,6.4 10.6,15.6 10.6,15.6 C11.3,17.3 12.5,16.7 12.8,18.1 C12.9,18.4 12.9,18.6 12.9,18.6 L13,18.6 C13,18.6 13,18.5 13.1,18.1 C13.4,16.7 14.7,17.3 15.3,15.6 C15.3,15.6 19.2,6.3 20.1,4.3 C19.9,4.1 19.6,3.9 19.3,3.7 L15.4,13.4 C15.6,14.9 14.9,16.5 13.1,16.9 L13.1,16.9 L13.1,16.9 Z M12.6,24.3 C12.7,23.8 12.7,23 12.7,22.1 C12.7,21.8 12.7,22 12.7,21.9 C12.7,20.6 12.7,20.1 11.8,19.9 C10.5,19.5 9.9,17.9 10.2,16.1 L5.7,4.6 C3.4,6.7 1.9,9.7 1.9,13.1 C1.9,19 6.6,24 12.6,24.3 L12.6,24.3 Z M20.2,11.2 C20.2,10.2 20.4,9.4 21.1,9.4 C21.8,9.4 22,10.2 22,11.2 C22,12.2 21.7,13 21.1,13 C20.5,12.9 20.2,12.1 20.2,11.2 L20.2,11.2 Z M19,11.2 C19,12.7 19.7,13.8 21.2,13.8 C22.7,13.8 23.4,12.7 23.4,11.2 C23.4,9.7 22.7,8.6 21.2,8.6 C19.7,8.5 19,9.6 19,11.2 L19,11.2 Z M13.6,6.1 L12.5,6.1 L13,3.9 L13.1,3.9 L13.6,6.1 L13.6,6.1 Z M14.1,8.2 L15.3,8.2 L14,3 L12.4,3 L10.9,8.1 L12,8.1 L12.3,7 L13.8,7 L14.1,8.2 L14.1,8.2 Z M3.6,13.7 L4.8,13.7 L4.8,11.6 L6.7,11.6 L6.7,10.7 L4.8,10.7 L4.8,9.5 L6.8,9.5 L6.8,8.6 L3.6,8.6 L3.6,13.7 L3.6,13.7 Z M13.1,8 C13.1,8 14.1,9.1 14.1,10 C14.1,10.9 13.4,11.2 13.1,11.2 C13.1,11.2 13.1,11.2 13.1,11.2 L13.1,11.2 C13.1,11.2 13.1,11.2 13.1,11.2 C12.9,11.2 12.1,11 12.1,10 C12.1,9.1 13.1,8 13.1,8 L13.1,8 Z M13.1,25.7 C6.1,25.7 0.4,20 0.4,13 C0.4,6 6.1,0.3 13.1,0.3 C20.1,0.3 25.8,6 25.8,13 C25.8,20 20.1,25.7 13.1,25.7 L13.1,25.7 Z" id="Shape"></path>
                    <polygon id="Path" points="30.5 3 33 3 33 3.7 31.4 3.7 31.4 5.1 33 5.1 33 5.8 31.4 5.8 31.4 8 30.5 8"></polygon>
                    <path d="M35,7.4 C35.6,7.4 35.7,6.7 35.7,6.1 C35.7,5.5 35.6,4.8 35,4.8 C34.4,4.8 34.3,5.5 34.3,6.1 C34.3,6.8 34.5,7.4 35,7.4 L35,7.4 Z M35,4.2 C35.8,4.2 36.6,4.6 36.6,6.1 C36.6,7.6 35.7,8 35,8 C34.2,8 33.4,7.6 33.4,6.1 C33.4,4.6 34.3,4.2 35,4.2 L35,4.2 Z" id="Shape"></path>
                    <path d="M38.9,7.4 C39.5,7.4 39.6,6.7 39.6,6.1 C39.6,5.5 39.5,4.8 38.9,4.8 C38.3,4.8 38.2,5.5 38.2,6.1 C38.2,6.8 38.3,7.4 38.9,7.4 L38.9,7.4 Z M38.9,4.2 C39.7,4.2 40.5,4.6 40.5,6.1 C40.5,7.6 39.6,8 38.9,8 C38.1,8 37.3,7.6 37.3,6.1 C37.3,4.6 38.1,4.2 38.9,4.2 L38.9,4.2 Z" id="Shape"></path>
                    <path d="M42.6,7.4 C43.1,7.4 43.3,6.8 43.3,6.1 C43.3,5.4 43.1,4.9 42.6,4.9 C42.1,4.9 41.9,5.4 41.9,6.1 C42,7 42.1,7.4 42.6,7.4 L42.6,7.4 Z M44.2,2.6 L44.2,7.3 C44.2,7.6 44.2,7.8 44.2,7.9 L43.4,7.9 C43.4,7.8 43.4,7.6 43.4,7.3 L43.4,7.3 C43.3,7.6 43,7.9 42.4,7.9 C41.5,7.9 41.1,7 41.1,6 C41.1,4.8 41.6,4.1 42.4,4.1 C42.9,4.1 43.2,4.4 43.4,4.7 L43.4,4.7 L43.4,2.5 L44.2,2.5 L44.2,2.6 Z" id="Shape"></path>
                    <path d="M48.8,6.2 L48.8,6.2 C48,6.2 47.5,6.4 47.5,6.9 C47.5,7.2 47.7,7.5 48.1,7.5 C48.6,7.5 48.8,7.1 48.8,6.4 L48.8,6.2 L48.8,6.2 Z M47.1,4.5 C47.4,4.4 47.7,4.2 48.3,4.2 C49.4,4.2 49.7,4.8 49.7,5.7 L49.7,7.3 C49.7,7.6 49.7,7.8 49.7,8 L48.9,8 C48.9,7.9 48.9,7.7 48.9,7.5 L48.9,7.5 C48.7,7.8 48.4,8.1 47.9,8.1 C47.3,8.1 46.8,7.7 46.8,7 C46.8,6 47.6,5.7 48.7,5.7 L48.9,5.7 L48.9,5.6 C48.9,5.2 48.7,4.9 48.2,4.9 C47.8,4.9 47.4,5.1 47.2,5.3 L47.1,4.5 L47.1,4.5 Z" id="Shape"></path>
                    <path d="M50.5,4.9 C50.5,4.7 50.5,4.5 50.5,4.3 L51.3,4.3 C51.3,4.5 51.3,4.7 51.3,4.9 L51.3,4.9 C51.4,4.7 51.7,4.3 52.3,4.3 C53.1,4.3 53.4,4.9 53.4,5.7 L53.4,8 L52.5,8 L52.5,5.8 C52.5,5.2 52.4,5 52,5 C51.5,5 51.4,5.4 51.4,5.9 L51.4,8 L50.5,8 L50.5,4.9 L50.5,4.9 Z" id="Path"></path>
                    <path d="M55.6,7.4 C56.1,7.4 56.3,6.8 56.3,6.1 C56.3,5.4 56.1,4.9 55.6,4.9 C55.1,4.9 54.9,5.4 54.9,6.1 C55,7 55.1,7.4 55.6,7.4 L55.6,7.4 Z M57.2,2.6 L57.2,7.3 C57.2,7.6 57.2,7.8 57.2,7.9 L56.4,7.9 C56.4,7.8 56.4,7.6 56.4,7.3 L56.4,7.3 C56.3,7.6 56,7.9 55.4,7.9 C54.5,7.9 54.1,7 54.1,6 C54.1,4.8 54.6,4.1 55.4,4.1 C55.9,4.1 56.2,4.4 56.4,4.7 L56.4,4.7 L56.4,2.5 L57.2,2.5 L57.2,2.6 Z" id="Shape"></path>
                    <path d="M61.9,6.1 L61.3,3.8 L61.3,3.8 L60.6,6.1 L61.9,6.1 L61.9,6.1 Z M62.1,6.8 L60.4,6.8 L60,8 L59.1,8 L60.8,3 L61.8,3 L63.4,8 L62.5,8 L62.1,6.8 L62.1,6.8 Z" id="Shape"></path>
                    <path d="M65.2,7.3 C65.8,7.3 66,6.9 66,6.1 C66,5.3 65.7,4.9 65.3,4.9 C64.8,4.9 64.7,5.3 64.7,6.1 C64.7,7 64.9,7.3 65.2,7.3 L65.2,7.3 Z M64,8.6 C64.2,8.7 64.6,8.9 65.1,8.9 C65.9,8.9 66.1,8.3 66.1,7.7 L66.1,7.3 L66.1,7.3 C66,7.6 65.7,7.9 65.1,7.9 C64.6,7.9 63.8,7.6 63.8,6.1 C63.8,5.1 64.2,4.2 65.1,4.2 C65.6,4.2 65.9,4.5 66.1,4.8 L66.1,4.8 C66.1,4.6 66.1,4.4 66.1,4.2 L66.9,4.2 C66.9,4.4 66.9,4.6 66.9,4.8 L66.9,7.5 C66.9,8.7 66.6,9.5 65.2,9.5 C64.6,9.5 64.1,9.3 63.9,9.3 L64,8.6 L64,8.6 Z" id="Shape"></path>
                    <path d="M67.7,4.9 C67.7,4.7 67.7,4.5 67.7,4.3 L68.5,4.3 C68.5,4.5 68.5,4.8 68.5,5 L68.5,5 C68.6,4.7 68.9,4.3 69.4,4.3 C69.5,4.3 69.5,4.3 69.6,4.3 L69.6,5.1 C69.5,5.1 69.4,5.1 69.3,5.1 C68.9,5.1 68.5,5.3 68.5,6 L68.5,8 L67.6,8 L67.6,4.9 L67.7,4.9 Z" id="Path"></path>
                    <path d="M70.3,4.3 L71.2,4.3 L71.2,8 L70.3,8 L70.3,4.3 L70.3,4.3 Z M70.3,2.7 L71.2,2.7 L71.2,3.6 L70.3,3.6 L70.3,2.7 L70.3,2.7 Z" id="Shape"></path>
                    <path d="M74.6,7.9 C74.4,8 74.1,8.1 73.7,8.1 C72.5,8.1 72,7.2 72,6.2 C72,5.1 72.5,4.3 73.8,4.3 C74.1,4.3 74.4,4.4 74.6,4.5 L74.5,5.2 C74.3,5.1 74.1,5 73.9,5 C73.2,5 72.9,5.5 72.9,6.2 C72.9,6.9 73.2,7.4 73.9,7.4 C74.1,7.4 74.4,7.3 74.5,7.2 L74.6,7.9 L74.6,7.9 Z" id="Path"></path>
                    <path d="M78,7.4 C78,7.6 78,7.8 78,8 L77.2,8 C77.2,7.8 77.2,7.6 77.2,7.4 L77.2,7.4 L77.2,7.4 C77,7.7 76.8,8 76.2,8 C75.4,8 75.1,7.4 75.1,6.6 L75.1,4.2 L76,4.2 L76,6.4 C76,7 76.2,7.2 76.5,7.2 C77,7.2 77.1,6.8 77.1,6.3 L77.1,4.2 L78,4.2 L78,7.4 L78,7.4 Z" id="Path"></path>
                    <polygon id="Path" points="78.9 2.6 79.8 2.6 79.8 8 78.9 8"></polygon>
                    <path d="M81,3.5 L81.9,3.2 L81.9,4.2 L82.6,4.2 L82.6,4.9 L81.9,4.9 L81.9,6.8 C81.9,7.2 82,7.3 82.3,7.3 C82.5,7.3 82.6,7.3 82.6,7.2 L82.6,7.8 C82.5,7.9 82.3,7.9 82,7.9 C81.3,7.9 81,7.6 81,6.8 L81,4.8 L80.4,4.8 L80.4,4.1 L81,4.1 L81,3.5 L81,3.5 Z" id="Path"></path>
                    <path d="M86.1,7.4 C86.1,7.6 86.1,7.8 86.1,8 L85.3,8 C85.3,7.8 85.3,7.6 85.3,7.4 L85.3,7.4 L85.3,7.4 C85.1,7.7 84.9,8 84.3,8 C83.5,8 83.2,7.4 83.2,6.6 L83.2,4.2 L84.1,4.2 L84.1,6.4 C84.1,7 84.3,7.2 84.6,7.2 C85.1,7.2 85.2,6.8 85.2,6.3 L85.2,4.2 L86.1,4.2 L86.1,7.4 L86.1,7.4 Z" id="Path"></path>
                    <path d="M86.9,4.9 C86.9,4.7 86.9,4.5 86.9,4.3 L87.7,4.3 C87.7,4.5 87.7,4.8 87.7,5 L87.7,5 C87.8,4.7 88.1,4.3 88.6,4.3 C88.7,4.3 88.7,4.3 88.8,4.3 L88.8,5.1 C88.7,5.1 88.6,5.1 88.5,5.1 C88.1,5.1 87.7,5.3 87.7,6 L87.7,8 L86.8,8 L86.8,4.9 L86.9,4.9 Z" id="Path"></path>
                    <path d="M32.3,15.4 C32.9,15.4 33.3,14.9 33.3,13.5 C33.3,12.1 32.8,11.6 32.3,11.6 C31.8,11.6 31.3,12.1 31.3,13.5 C31.3,14.9 31.7,15.4 32.3,15.4 L32.3,15.4 Z M32.3,11 C33.3,11 34.3,11.8 34.3,13.6 C34.3,15.4 33.3,16.2 32.3,16.2 C31.3,16.2 30.3,15.4 30.3,13.6 C30.3,11.8 31.3,11 32.3,11 L32.3,11 Z" id="Shape"></path>
                    <path d="M35,13 C35,12.8 35,12.6 35,12.4 L35.8,12.4 C35.8,12.6 35.8,12.9 35.8,13.1 L35.8,13.1 C35.9,12.8 36.2,12.4 36.7,12.4 C36.8,12.4 36.8,12.4 36.9,12.4 L36.9,13.2 C36.8,13.2 36.7,13.2 36.6,13.2 C36.2,13.2 35.8,13.4 35.8,14.1 L35.8,16.1 L35,16.1 L35,13 L35,13 Z" id="Path"></path>
                    <path d="M38.9,15.4 C39.5,15.4 39.7,15 39.7,14.2 C39.7,13.4 39.4,13 39,13 C38.5,13 38.4,13.4 38.4,14.2 C38.3,15 38.6,15.4 38.9,15.4 L38.9,15.4 Z M37.6,16.6 C37.8,16.7 38.2,16.9 38.7,16.9 C39.5,16.9 39.7,16.3 39.7,15.7 L39.7,15.3 L39.7,15.3 C39.6,15.6 39.3,15.9 38.7,15.9 C38.2,15.9 37.4,15.6 37.4,14.1 C37.4,13.1 37.8,12.2 38.7,12.2 C39.2,12.2 39.5,12.5 39.7,12.8 L39.7,12.8 C39.7,12.6 39.7,12.4 39.7,12.2 L40.5,12.2 C40.5,12.4 40.5,12.6 40.5,12.8 L40.5,15.5 C40.5,16.7 40.1,17.5 38.8,17.5 C38.2,17.5 37.7,17.3 37.5,17.3 L37.6,16.6 L37.6,16.6 Z" id="Shape"></path>
                    <path d="M43.2,14.3 L43.2,14.3 C42.4,14.3 41.9,14.5 41.9,15 C41.9,15.3 42.1,15.6 42.5,15.6 C43,15.6 43.2,15.2 43.2,14.5 L43.2,14.3 L43.2,14.3 Z M41.5,12.6 C41.8,12.5 42.1,12.3 42.7,12.3 C43.8,12.3 44.1,12.9 44.1,13.8 L44.1,15.4 C44.1,15.7 44.1,15.9 44.1,16.1 L43.3,16.1 C43.3,16 43.3,15.8 43.3,15.6 L43.3,15.6 C43.1,15.9 42.8,16.2 42.3,16.2 C41.7,16.2 41.2,15.8 41.2,15.1 C41.2,14.1 42,13.8 43.1,13.8 L43.3,13.8 L43.3,13.7 C43.3,13.3 43.1,13 42.6,13 C42.2,13 41.8,13.2 41.6,13.4 L41.5,12.6 L41.5,12.6 Z" id="Shape"></path>
                    <path d="M44.9,13 C44.9,12.8 44.9,12.6 44.9,12.4 L45.7,12.4 C45.7,12.6 45.7,12.8 45.7,13 L45.7,13 C45.8,12.8 46.1,12.4 46.7,12.4 C47.5,12.4 47.8,13 47.8,13.8 L47.8,16.2 L46.9,16.2 L46.9,14 C46.9,13.4 46.8,13.2 46.4,13.2 C45.9,13.2 45.8,13.6 45.8,14.1 L45.8,16.2 L44.9,16.2 L44.9,13 L44.9,13 Z" id="Path"></path>
                    <path d="M48.7,12.4 L49.6,12.4 L49.6,16.1 L48.7,16.1 L48.7,12.4 L48.7,12.4 Z M48.7,10.8 L49.6,10.8 L49.6,11.7 L48.7,11.7 L48.7,10.8 L48.7,10.8 Z" id="Shape"></path>
                    <polygon id="Path" points="50.2 15.3 51.8 13 50.3 13 50.3 12.4 52.7 12.4 52.7 13.1 51.2 15.4 52.8 15.4 52.8 16.1 50.2 16.1"></polygon>
                    <path d="M55.3,14.3 L55.3,14.3 C54.5,14.3 54,14.5 54,15 C54,15.3 54.2,15.6 54.6,15.6 C55.1,15.6 55.3,15.2 55.3,14.5 L55.3,14.3 L55.3,14.3 Z M53.5,12.6 C53.8,12.5 54.1,12.3 54.7,12.3 C55.8,12.3 56.1,12.9 56.1,13.8 L56.1,15.4 C56.1,15.7 56.1,15.9 56.1,16.1 L55.3,16.1 C55.3,16 55.2,15.8 55.2,15.6 L55.2,15.6 C55,15.9 54.7,16.2 54.2,16.2 C53.6,16.2 53.1,15.8 53.1,15.1 C53.1,14.1 53.9,13.8 55,13.8 L55.2,13.8 L55.2,13.7 C55.2,13.3 55,13 54.5,13 C54.1,13 53.7,13.2 53.5,13.4 L53.5,12.6 L53.5,12.6 Z" id="Shape"></path>
                    <path d="M57.3,11.6 L58.2,11.3 L58.2,12.3 L58.9,12.3 L58.9,13 L58.2,13 L58.2,14.9 C58.2,15.3 58.3,15.4 58.6,15.4 C58.8,15.4 58.9,15.4 58.9,15.3 L58.9,16 C58.8,16.1 58.6,16.1 58.3,16.1 C57.6,16.1 57.3,15.8 57.3,15 L57.3,13 L56.7,13 L56.7,12.3 L57.3,12.3 L57.3,11.6 L57.3,11.6 Z" id="Path"></path>
                    <path d="M59.5,12.4 L60.4,12.4 L60.4,16.1 L59.5,16.1 L59.5,12.4 L59.5,12.4 Z M59.5,10.8 L60.4,10.8 L60.4,11.7 L59.5,11.7 L59.5,10.8 L59.5,10.8 Z" id="Shape"></path>
                    <path d="M62.8,15.5 C63.4,15.5 63.5,14.8 63.5,14.2 C63.5,13.6 63.4,12.9 62.8,12.9 C62.2,12.9 62.1,13.6 62.1,14.2 C62.1,14.8 62.2,15.5 62.8,15.5 L62.8,15.5 Z M62.8,12.3 C63.6,12.3 64.4,12.7 64.4,14.2 C64.4,15.7 63.5,16.1 62.8,16.1 C62,16.1 61.2,15.7 61.2,14.2 C61.2,12.7 62.1,12.3 62.8,12.3 L62.8,12.3 Z" id="Shape"></path>
                    <path d="M65.1,13 C65.1,12.8 65.1,12.6 65.1,12.4 L65.9,12.4 C65.9,12.6 65.9,12.8 65.9,13 L65.9,13 C66,12.8 66.3,12.4 66.9,12.4 C67.7,12.4 68,13 68,13.8 L68,16.2 L67.1,16.2 L67.1,14 C67.1,13.4 67,13.2 66.6,13.2 C66.1,13.2 66,13.6 66,14.1 L66,16.2 L65.1,16.2 L65.1,13 L65.1,13 Z" id="Path"></path>
                    <path d="M72.2,15.5 C72.8,15.5 72.9,14.8 72.9,14.2 C72.9,13.6 72.8,12.9 72.2,12.9 C71.6,12.9 71.5,13.6 71.5,14.2 C71.5,14.8 71.7,15.5 72.2,15.5 L72.2,15.5 Z M72.2,12.3 C73,12.3 73.8,12.7 73.8,14.2 C73.8,15.7 72.9,16.1 72.2,16.1 C71.4,16.1 70.6,15.7 70.6,14.2 C70.6,12.7 71.5,12.3 72.2,12.3 L72.2,12.3 Z" id="Shape"></path>
                    <path d="M74.8,13 L74.2,13 L74.2,12.3 L74.8,12.3 L74.8,11.5 C74.8,11 75,10.5 75.9,10.5 C76.1,10.5 76.4,10.6 76.5,10.6 L76.5,11.2 C76.4,11.2 76.3,11.1 76.1,11.1 C75.8,11.1 75.7,11.3 75.7,11.6 L75.7,12.2 L76.4,12.2 L76.4,13 L75.7,13 L75.7,16 L74.8,16 L74.8,13 L74.8,13 Z" id="Path"></path>
                    <path d="M79.1,11.6 L80,11.3 L80,12.3 L80.7,12.3 L80.7,13 L80,13 L80,14.9 C80,15.3 80.1,15.4 80.4,15.4 C80.6,15.4 80.7,15.4 80.7,15.3 L80.7,16 C80.6,16.1 80.4,16.1 80.1,16.1 C79.4,16.1 79.1,15.8 79.1,15 L79.1,13 L78.5,13 L78.5,12.3 L79.1,12.3 L79.1,11.6 L79.1,11.6 Z" id="Path"></path>
                    <path d="M81.3,10.7 L82.2,10.7 L82.2,12.9 L82.2,12.9 C82.4,12.7 82.6,12.4 83.1,12.4 C83.9,12.4 84.2,13 84.2,13.8 L84.2,16.2 L83.3,16.2 L83.3,14 C83.3,13.4 83.2,13.2 82.8,13.2 C82.3,13.2 82.2,13.6 82.2,14.1 L82.2,16.2 L81.3,16.2 L81.3,10.7 L81.3,10.7 Z" id="Path"></path>
                    <path d="M87,13.9 C87,13.2 86.8,12.9 86.4,12.9 C85.9,12.9 85.7,13.4 85.7,13.9 L87,13.9 L87,13.9 Z M87.7,15.9 C87.5,16 87.1,16.1 86.6,16.1 C85.4,16.1 84.9,15.2 84.9,14.3 C84.9,13.2 85.5,12.3 86.4,12.3 C87.2,12.3 87.9,12.8 87.9,14.3 L87.9,14.5 L85.8,14.5 C85.8,15.1 86.1,15.5 86.7,15.5 C87.2,15.5 87.5,15.3 87.7,15.2 L87.7,15.9 L87.7,15.9 Z" id="Shape"></path>
                    <path d="M31.4,19.1 L31.4,22.3 C31.4,23.1 31.7,23.4 32.2,23.4 C32.7,23.4 33,23.1 33,22.3 L33,19.1 L33.9,19.1 L33.9,22.3 C33.9,23.6 33.1,24.1 32.2,24.1 C31.3,24.1 30.5,23.6 30.5,22.3 L30.5,19.1 L31.4,19.1 L31.4,19.1 Z" id="Path"></path>
                    <path d="M34.8,21.1 C34.8,20.9 34.8,20.7 34.8,20.5 L35.6,20.5 C35.6,20.7 35.6,20.9 35.6,21.1 L35.6,21.1 C35.7,20.9 36,20.5 36.6,20.5 C37.4,20.5 37.7,21.1 37.7,21.9 L37.7,24.3 L36.8,24.3 L36.8,22.1 C36.8,21.5 36.7,21.3 36.3,21.3 C35.8,21.3 35.7,21.7 35.7,22.2 L35.7,24.3 L34.8,24.3 L34.8,21.1 L34.8,21.1 Z" id="Path"></path>
                    <path d="M38.5,20.5 L39.4,20.5 L39.4,24.2 L38.5,24.2 L38.5,20.5 L38.5,20.5 Z M38.5,18.9 L39.4,18.9 L39.4,19.8 L38.5,19.8 L38.5,18.9 L38.5,18.9 Z" id="Shape"></path>
                    <path d="M40.7,19.7 L41.6,19.4 L41.6,20.4 L42.3,20.4 L42.3,21.1 L41.6,21.1 L41.6,23 C41.6,23.4 41.7,23.5 42,23.5 C42.2,23.5 42.3,23.5 42.3,23.4 L42.3,24 C42.2,24.1 42,24.1 41.7,24.1 C41,24.1 40.7,23.8 40.7,23 L40.7,21 L40.1,21 L40.1,20.3 L40.7,20.3 L40.7,19.7 L40.7,19.7 Z" id="Path"></path>
                    <path d="M44.9,22 C44.9,21.3 44.7,21 44.3,21 C43.8,21 43.6,21.5 43.6,22 L44.9,22 L44.9,22 Z M45.5,24 C45.3,24.1 44.9,24.2 44.4,24.2 C43.2,24.2 42.7,23.3 42.7,22.4 C42.7,21.3 43.3,20.4 44.2,20.4 C45,20.4 45.7,20.9 45.7,22.4 L45.7,22.6 L43.6,22.6 C43.6,23.2 43.9,23.6 44.5,23.6 C45,23.6 45.3,23.4 45.5,23.3 L45.5,24 L45.5,24 Z" id="Shape"></path>
                    <path d="M47.8,23.5 C48.3,23.5 48.5,22.9 48.5,22.2 C48.5,21.5 48.3,21 47.8,21 C47.3,21 47.1,21.5 47.1,22.2 C47.2,23.1 47.3,23.5 47.8,23.5 L47.8,23.5 Z M49.4,18.8 L49.4,23.5 C49.4,23.8 49.4,24 49.4,24.1 L48.6,24.1 C48.6,24 48.6,23.8 48.6,23.5 L48.6,23.5 C48.5,23.8 48.2,24.1 47.6,24.1 C46.7,24.1 46.3,23.2 46.3,22.2 C46.3,21 46.8,20.3 47.6,20.3 C48.1,20.3 48.4,20.6 48.6,20.9 L48.6,20.9 L48.6,18.7 L49.4,18.7 L49.4,18.8 Z" id="Shape"></path>
                    <polygon id="Path" points="52.2 19.1 53.3 19.1 55 23.1 55 23.1 55 19.1 55.8 19.1 55.8 24.1 54.7 24.1 53.1 20.2 53.1 20.2 53.1 24.1 52.2 24.1"></polygon>
                    <path d="M58.7,22.3 L58.7,22.3 C57.9,22.3 57.4,22.5 57.4,23 C57.4,23.3 57.6,23.6 58,23.6 C58.5,23.6 58.7,23.2 58.7,22.5 L58.7,22.3 L58.7,22.3 Z M56.9,20.7 C57.2,20.6 57.5,20.4 58.1,20.4 C59.2,20.4 59.5,21 59.5,21.9 L59.5,23.5 C59.5,23.8 59.5,24 59.5,24.2 L58.7,24.2 C58.7,24.1 58.6,23.9 58.6,23.7 L58.6,23.7 C58.4,24 58.1,24.3 57.6,24.3 C57,24.3 56.5,23.9 56.5,23.2 C56.5,22.2 57.3,21.9 58.4,21.9 L58.6,21.9 L58.6,21.8 C58.6,21.4 58.4,21.1 57.9,21.1 C57.5,21.1 57.1,21.3 56.9,21.5 L56.9,20.7 L56.9,20.7 Z" id="Shape"></path>
                    <path d="M60.6,19.7 L61.5,19.4 L61.5,20.4 L62.2,20.4 L62.2,21.1 L61.5,21.1 L61.5,23 C61.5,23.4 61.6,23.5 61.9,23.5 C62.1,23.5 62.2,23.5 62.2,23.4 L62.2,24 C62.1,24.1 61.9,24.1 61.6,24.1 C60.9,24.1 60.6,23.8 60.6,23 L60.6,21 L60,21 L60,20.3 L60.6,20.3 L60.6,19.7 L60.6,19.7 Z" id="Path"></path>
                    <path d="M62.9,20.5 L63.8,20.5 L63.8,24.2 L62.9,24.2 L62.9,20.5 L62.9,20.5 Z M62.9,18.9 L63.8,18.9 L63.8,19.8 L62.9,19.8 L62.9,18.9 L62.9,18.9 Z" id="Shape"></path>
                    <path d="M66.2,23.6 C66.8,23.6 66.9,22.9 66.9,22.3 C66.9,21.7 66.8,21 66.2,21 C65.6,21 65.5,21.7 65.5,22.3 C65.5,22.9 65.6,23.6 66.2,23.6 L66.2,23.6 Z M66.2,20.4 C67,20.4 67.8,20.8 67.8,22.3 C67.8,23.8 66.9,24.2 66.2,24.2 C65.4,24.2 64.6,23.8 64.6,22.3 C64.6,20.8 65.5,20.4 66.2,20.4 L66.2,20.4 Z" id="Shape"></path>
                    <path d="M68.5,21.1 C68.5,20.9 68.5,20.7 68.5,20.5 L69.3,20.5 C69.3,20.7 69.3,20.9 69.3,21.1 L69.3,21.1 C69.4,20.9 69.7,20.5 70.3,20.5 C71.1,20.5 71.4,21.1 71.4,21.9 L71.4,24.3 L70.5,24.3 L70.5,22.1 C70.5,21.5 70.4,21.3 70,21.3 C69.5,21.3 69.4,21.7 69.4,22.2 L69.4,24.3 L68.5,24.3 L68.5,21.1 L68.5,21.1 Z" id="Path"></path>
                    <path d="M72.1,23.3 C72.2,23.4 72.6,23.5 73,23.5 C73.3,23.5 73.6,23.4 73.6,23.1 C73.6,23 73.5,22.8 73.2,22.6 L72.8,22.4 C72.4,22.2 72,21.9 72,21.4 C72,20.9 72.5,20.4 73.3,20.4 C73.8,20.4 74.1,20.5 74.2,20.6 L74.1,21.3 C73.9,21.2 73.6,21.1 73.3,21.1 C72.9,21.1 72.8,21.2 72.8,21.5 C72.8,21.7 73,21.8 73.2,22 L73.6,22.3 C74.1,22.6 74.3,22.8 74.3,23.2 C74.3,23.9 73.7,24.3 72.9,24.3 C72.4,24.3 72.1,24.2 71.9,24.1 L72.1,23.3 L72.1,23.3 Z" id="Path"></path>
                </g>
            </g>
        </g>
    </g>
</svg>