<?xml version="1.0" encoding="UTF-8"?>
<svg width="94px" height="68px" viewBox="0 0 94 68" version="1.1" xmlns="http://www.w3.org/2000/svg" xmlns:xlink="http://www.w3.org/1999/xlink">
    <!-- Generator: Sketch 57.1 (83088) - https://sketch.com -->
    <title>logo-unep</title>
    <desc>Created with Sketch.</desc>
    <g id="Page-1" stroke="none" stroke-width="1" fill="none" fill-rule="evenodd">
        <g id="Artboard" fill="#FFFFFF" fill-rule="nonzero">
            <g id="logo-unep">
                <g id="Group" transform="translate(58.578313, 0.000000)">
                    <g id="Path" transform="translate(8.192771, 5.734940)">
                        <path d="M6.70578313,17.7537349 C3.0313253,16.6436145 0.356385542,13.2313253 0.356385542,9.19638554 C0.356385542,8.46722892 0.442409639,7.75855422 0.60626506,7.0826506 L6.41084337,7.82819277 C6.41084337,7.82819277 8.63927711,7.92650602 8.5573494,11.8713253 C8.47951807,15.6973494 6.70578313,17.7537349 6.70578313,17.7537349 Z"></path>
                        <path d="M11.8959036,17.7537349 C15.5703614,16.6436145 18.2453012,13.2313253 18.2453012,9.19638554 C18.2453012,8.46722892 18.1592771,7.75855422 17.9954217,7.0826506 L12.1908434,7.82819277 C12.1908434,7.82819277 9.96240964,7.92650602 10.0443373,11.8713253 C10.1221687,15.6973494 11.8959036,17.7537349 11.8959036,17.7537349 Z"></path>
                        <path d="M9.29879518,2.79783133 C10.0443373,2.79783133 10.6506024,3.40409639 10.6506024,4.14963855 C10.6506024,4.7313253 10.2491566,5.16554217 9.76578313,5.42361446 C9.70843373,5.45638554 9.65108434,5.48096386 9.66337349,5.57518072 C9.67566265,5.66939759 9.95421687,5.7226506 10.073012,5.7513253 L17.8766265,6.65662651 C16.7828916,2.95759036 13.3583133,0.258072289 9.30289157,0.258072289 L9.29060241,0.258072289 C5.23518072,0.258072289 1.8146988,2.95759036 0.71686747,6.65662651 L8.52048193,5.7513253 C8.63927711,5.7226506 8.91783133,5.67349398 8.93012048,5.57518072 C8.94240964,5.48506024 8.88506024,5.45638554 8.82771084,5.42361446 C8.34433735,5.16554217 7.94289157,4.7313253 7.94289157,4.14963855 C7.94698795,3.40409639 8.55325301,2.79783133 9.29879518,2.79783133 L9.29879518,2.79783133 Z"></path>
                    </g>
                    <path d="M21.0595181,29.8175904 L21.5879518,29.4857831 C21.5879518,29.4857831 19.0809639,26.0857831 13.4689157,26.0857831 C10.5973494,26.0857831 9.11036145,27.2409639 7.09903614,27.2409639 C7.09903614,27.2409639 6.27566265,27.3392771 5.48096386,26.8436145 C5.48096386,26.8436145 6.43951807,28.2281928 9.90506024,28.2281928 C12.4448193,28.2281928 14.2636145,26.7412048 16.0455422,26.7412048 C18.4828916,26.7493976 20.2975904,28.9245783 21.0595181,29.8175904 Z" id="Path"></path>
                    <path d="M13.2681928,29.8175904 L12.739759,29.4857831 C12.739759,29.4857831 15.246747,26.0857831 20.8587952,26.0857831 C23.7303614,26.0857831 25.2173494,27.2409639 27.2286747,27.2409639 C27.2286747,27.2409639 28.0520482,27.3392771 28.846747,26.8436145 C28.846747,26.8436145 27.8881928,28.2281928 24.4226506,28.2281928 C21.8828916,28.2281928 20.0640964,26.7412048 18.2821687,26.7412048 C15.8448193,26.7493976 14.0260241,28.9245783 13.2681928,29.8175904 Z" id="Path"></path>
                    <path d="M10.593253,25.7908434 C10.4949398,26.053012 9.42168675,25.7416867 8.69662651,25.9546988 C7.88554217,26.1963855 3.59662651,26.7125301 1.71638554,22.259759 C1.71638554,22.259759 3.49831325,24.1727711 4.88698795,24.3079518 C6.27156627,24.4390361 7.7913253,24.7708434 9.07759036,25.4959036 L9.37662651,25.5614458 C9.37662651,25.5614458 9.33566265,25.4303614 9.21277108,25.3648193 C9.04481928,25.2746988 7.70939759,24.8404819 7.06626506,22.7226506 C6.73445783,21.633012 6.80409639,20.8424096 6.66891566,20.2812048 C6.66891566,20.2812048 8.12313253,21.8992771 8.71710843,22.9233735 C9.30698795,23.9433735 9.37253012,25.0985542 10.593253,25.7908434 Z" id="Path"></path>
                    <path d="M6.22240964,23.5460241 C6.11590361,23.6525301 5.84144578,23.4804819 5.74313253,23.4313253 C5.64481928,23.3821687 4.93204819,23.0544578 3.7113253,22.6243373 C2.50698795,22.1942169 0.262168675,20.2975904 0.475180723,17.0450602 C0.475180723,17.0450602 0.79060241,18.2657831 1.71228916,19.0768675 C2.63807229,19.8838554 2.96578313,19.9862651 3.52698795,20.6457831 C4.08819277,21.3053012 5.35807229,22.8086747 5.40722892,22.7922892 C5.45638554,22.7759036 5.47277108,22.6939759 5.37445783,22.6120482 C5.27614458,22.5301205 4.94433735,21.7026506 4.7313253,21.4240964 C4.51831325,21.1455422 3.87518072,19.2120482 4.81325301,16.8361446 C4.81325301,16.8361446 5.82096386,18.5689157 5.75542169,20.3180723 C5.68987952,22.0672289 5.60795181,21.653494 6.0339759,23.1077108 C6.04216867,23.0995181 6.27156627,23.4968675 6.22240964,23.5460241 Z" id="Path"></path>
                    <path d="M3.41638554,19.3062651 C3.35493976,19.3677108 3.10096386,18.9908434 2.90433735,18.646747 C2.70771084,18.2985542 1.31903614,16.8156627 1.13879518,16.5166265 C0.958554217,16.2175904 -0.593975904,14.3373494 0.577590361,11.5477108 C0.577590361,11.5477108 0.692289157,11.5149398 0.692289157,12.1744578 C0.692289157,12.8339759 1.3026506,14.3045783 1.79831325,14.9313253 C2.2939759,15.5580723 2.74048193,16.5657831 2.83879518,17.6390361 C2.83879518,17.6390361 2.90433735,17.8356627 2.98626506,17.8520482 C3.06819277,17.8684337 3.06819277,17.6554217 3.06819277,17.6554217 C3.06819277,17.6554217 3.0026506,16.6640964 3.0026506,15.9881928 C3.0026506,15.3122892 3.30168675,14.1571084 3.94481928,13.4975904 C3.94481928,13.4975904 4.24385542,13.1657831 4.42409639,12.7725301 C4.42409639,12.7725301 4.53879518,12.5103614 4.7026506,12.3751807 C4.7026506,12.3751807 4.83373494,14.2718072 4.19060241,16.0373494 C3.54746988,17.8028916 3.33445783,18.1019277 3.43277108,19.0563855 C3.43277108,19.0563855 3.44915663,19.273494 3.41638554,19.3062651 Z" id="Path"></path>
                    <path d="M2.32674699,14.0915663 C2.26120482,14.0915663 2.21204819,13.8621687 2.17927711,13.6778313 C2.14650602,13.4975904 1.94987952,12.4407229 1.8146988,12.2072289 C1.68361446,11.9778313 1.18795181,10.9209639 1.17156627,9.68385542 C1.15518072,8.44674699 1.71638554,6.76313253 2.96987952,5.42771084 C2.96987952,5.42771084 2.92072289,5.82506024 2.58891566,6.69759036 C2.25710843,7.57421687 2.45783133,8.39759036 2.49060241,8.54506024 C2.52337349,8.69253012 2.63807229,9.71662651 2.63807229,10.1959036 C2.63807229,10.5768675 2.53975904,11.8795181 2.45783133,12.1416867 C2.45783133,12.1416867 2.42506024,12.3219277 2.49060241,12.3219277 C2.55614458,12.3219277 2.62168675,12.1744578 2.62168675,12.1744578 C2.62168675,12.1744578 2.68722892,11.1503614 3.44506024,10.2286747 C4.20289157,9.30289157 5.57518072,8.74168675 5.78819277,8.33204819 C5.78819277,8.33204819 5.68987952,9.78626506 4.08819277,11.4821687 C2.6626506,12.9978313 3.08048193,12.2236145 2.61759036,13.4607229 C2.61759036,13.4607229 2.42096386,13.9236145 2.42096386,14.0219277 C2.42506024,14.1243373 2.32674699,14.0915663 2.32674699,14.0915663 Z" id="Path"></path>
                    <path d="M3.20337349,9.20457831 C3.20337349,9.20457831 3.17060241,9.00795181 3.41638554,8.56144578 C3.66216867,8.11493976 3.4,7.32433735 3.73180723,6.16915663 C4.06361446,5.0139759 4.6739759,3.03542169 7.00072289,1.84746988 C7.00072289,1.84746988 6.7713253,2.06048193 6.65253012,2.22843373 C6.53783133,2.39228916 5.91108434,3.58024096 5.72674699,4.40771084 C5.54650602,5.23108434 4.75180723,6.61975904 4.45686747,6.93108434 C4.15783133,7.24650602 4.29301205,7.27927711 4.29301205,7.27927711 C4.29301205,7.27927711 4.44048193,7.24650602 4.59204819,7.01710843 C4.73951807,6.78771084 5.50144578,5.92746988 6.34120482,5.73084337 C7.18096386,5.53421687 8.52048193,5.13686747 8.60240964,5.05493976 C8.60240964,5.05493976 7.14819277,6.54192771 5.81277108,7.29975904 C4.4773494,8.05759036 4.32578313,7.82819277 3.53518072,8.85228916 C3.53108434,8.84409639 3.26891566,9.20457831 3.20337349,9.20457831 Z" id="Path"></path>
                    <path d="M6.4026506,4.80096386 C6.4026506,4.80096386 6.4026506,4.66987952 6.64843373,4.43638554 C6.89421687,4.20698795 7.14409639,3.51060241 7.57421687,2.86746988 C8.00433735,2.22433735 8.97518072,0.540722892 11.5026506,0.143373494 C11.5026506,0.143373494 10.7448193,0.704578313 10.6260241,0.884819277 C10.5113253,1.06506024 9.76987952,2.04 9.43807229,2.37180723 C9.10626506,2.70361446 8.16819277,3.39590361 7.85277108,3.54337349 C7.85277108,3.54337349 7.68891566,3.67445783 7.72168675,3.72361446 C7.75445783,3.77277108 7.91831325,3.67445783 7.91831325,3.67445783 C7.91831325,3.67445783 8.79493976,2.99855422 9.84771084,2.96578313 C10.9045783,2.93301205 12.0106024,2.98216867 12.1744578,2.99855422 C12.1744578,2.99855422 11.1831325,3.67445783 8.82361446,4.10457831 C6.46409639,4.5346988 6.91060241,4.55108434 6.5460241,4.78048193 C6.55012048,4.78457831 6.46819277,4.85012048 6.4026506,4.80096386 Z" id="Path"></path>
                    <path d="M10.6096386,2.06048193 C10.6096386,2.06048193 10.6587952,1.92939759 11.039759,1.8146988 C11.4207229,1.7 11.3879518,1.33542169 12.5431325,0.725060241 C13.6983133,0.114698795 14.9026506,-0.167951807 16.1233735,0.344096386 C16.1233735,0.344096386 15.6113253,0.409638554 15.5293976,0.442409639 C15.4474699,0.475180723 14.5708434,0.704578313 14.3250602,0.839759036 C14.0792771,0.970843373 12.8053012,1.53204819 12.293253,1.63036145 C11.7812048,1.7286747 12.0310843,1.76144578 12.0310843,1.76144578 C12.0310843,1.76144578 12.1457831,1.81060241 12.2440964,1.81060241 C12.3424096,1.81060241 13.4812048,1.69590361 14.2226506,1.95807229 C14.9640964,2.22024096 14.9477108,2.3226506 15.246747,2.42096386 C15.5457831,2.51927711 15.8898795,2.58481928 15.9390361,2.69951807 C15.9390361,2.69951807 15.1975904,2.76506024 14.7510843,2.76506024 C14.3045783,2.76506024 13.133012,2.65036145 12.5718072,2.38409639 C12.0106024,2.12192771 11.3674699,2.00313253 11.1544578,2.05228916 C10.9414458,2.10963855 10.6792771,2.10963855 10.6096386,2.06048193 Z" id="Path"></path>
                    <path d="M15.3,1.48289157 C15.3,1.48289157 15.3491566,1.4173494 15.6809639,1.35180723 C16.0127711,1.28626506 16.0946988,1.08963855 16.8689157,0.921686747 C17.6431325,0.75373494 18.8474699,0.60626506 19.953494,1.36819277 C19.953494,1.36819277 19.2775904,1.35180723 19.1301205,1.35180723 C18.9826506,1.35180723 17.6963855,1.58120482 17.3973494,1.58120482 C17.0983133,1.58120482 16.5043373,1.45012048 16.4224096,1.54843373 C16.3404819,1.64674699 16.9672289,1.77783133 17.0655422,1.81060241 C17.1638554,1.84337349 17.6103614,1.87614458 18.1715663,2.42096386 C18.7327711,2.96578313 19.1301205,3.26072289 19.1956627,3.29759036 C19.1956627,3.29759036 17.5448193,2.91662651 17.1310843,2.68722892 C16.7173494,2.45783133 16.0086747,1.74506024 15.8939759,1.69590361 C15.7751807,1.64674699 15.3,1.48289157 15.3,1.48289157 Z" id="Path"></path>
                    <path d="M19.1096386,2.15879518 C19.1096386,2.15879518 20.1501205,2.1260241 20.9079518,2.6053012 C21.6657831,3.08457831 22.2761446,3.7113253 22.3416867,4.09228916 C22.3416867,4.09228916 21.9115663,3.72771084 21.633012,3.64578313 C21.3503614,3.56385542 20.559759,3.1173494 20.3959036,3.01903614 C20.2320482,2.92072289 19.2775904,2.30626506 19.1096386,2.15879518 Z" id="Path"></path>
                    <path d="M23.9966265,25.9710843 C23.9966265,25.9710843 24.1440964,25.8236145 24.639759,25.393494 C25.1354217,24.9633735 25.266506,24.3366265 25.8113253,23.3616867 C26.3561446,22.386747 26.8190361,21.7108434 27.9250602,20.7195181 C27.9250602,20.7195181 27.7284337,21.4609639 27.7120482,21.6944578 C27.6956627,21.9238554 27.5154217,23.2142169 26.8886747,23.9556627 C26.2619277,24.6971084 26.2291566,24.8650602 25.5040964,25.3074699 C25.5040964,25.3074699 25.2214458,25.5040964 25.2419277,25.5696386 C25.2583133,25.6351807 25.7375904,25.553253 25.7375904,25.553253 C25.7375904,25.553253 26.2660241,25.3566265 26.4298795,25.2542169 C26.5937349,25.1559036 27.3392771,24.7749398 27.6342169,24.660241 C27.933253,24.5455422 28.1790361,24.4308434 28.8385542,24.2301205 C29.4980723,24.033494 31.8903614,23.4231325 32.8325301,21.9033735 C32.8325301,21.9033735 32.5539759,22.7963855 32.2057831,23.2060241 C31.8575904,23.619759 29.8954217,26.2086747 27.1713253,26.1595181 C27.1713253,26.1595181 26.0980723,26.0775904 25.5368675,25.9792771 C24.9756627,25.8809639 24.7790361,25.8809639 24.6971084,25.8973494 C24.606988,25.9219277 24.0785542,26.020241 23.9966265,25.9710843 Z" id="Path"></path>
                    <path d="M30.0838554,16.713253 C30.0838554,16.713253 29.059759,18.3149398 28.8303614,20.6253012 C28.6009639,22.9356627 28.9942169,22.2433735 28.6173494,23.2674699 C28.6173494,23.2674699 28.4862651,23.5296386 28.5354217,23.5460241 C28.5845783,23.5624096 28.7812048,23.4477108 29.5103614,23.0012048 C30.2354217,22.5546988 30.9481928,22.6857831 32.4966265,21.2028916 C34.0491566,19.7159036 34.3604819,16.7624096 34.393253,16.5166265 C34.393253,16.5166265 34.1638554,16.7460241 34.0450602,17.1433735 C33.9303614,17.5407229 33.6804819,17.8520482 33.6313253,17.9012048 C33.5821687,17.9503614 31.8985542,19.7978313 31.7019277,19.9657831 C31.5053012,20.1296386 30.5139759,21.3339759 30.3009639,21.6821687 C30.0879518,22.0303614 29.4612048,22.6571084 29.3424096,22.6079518 C29.3424096,22.6079518 29.3587952,22.4604819 29.4079518,22.3457831 C29.4571084,22.2310843 29.92,21.6043373 30.1166265,20.8751807 C30.313253,20.1501205 30.3624096,19.7036145 30.3787952,19.2407229 C30.3992771,18.7778313 30.100241,17.0778313 30.0838554,16.713253 Z" id="Path"></path>
                    <path d="M31.4725301,18.9416867 C31.4725301,18.9416867 31.3701205,18.7 31.4561446,18.5279518 C31.5053012,18.4296386 31.5544578,17.6349398 31.2595181,16.9918072 C30.9645783,16.3486747 30.3173494,14.566747 30.366506,13.3787952 C30.4156627,12.1908434 30.546747,12.026988 30.546747,12.026988 C30.546747,12.026988 30.8785542,13.0019277 30.9768675,13.1657831 C31.0751807,13.3296386 32.066506,15.0787952 31.9845783,16.0373494 C31.9026506,16.9959036 31.853494,17.2908434 31.9026506,17.3072289 C31.9518072,17.3236145 32.066506,17.1925301 32.0828916,17.0778313 C32.0992771,16.9631325 32.2631325,16.3036145 32.5785542,15.5253012 C32.8939759,14.7510843 34.1638554,13.0346988 34.4424096,11.8959036 C34.4424096,11.8959036 34.8561446,13.8744578 33.7501205,15.7260241 C32.6440964,17.573494 32.5293976,17.159759 32.066506,18.0036145 C31.6036145,18.8433735 31.5380723,18.9416867 31.4725301,18.9416867 Z" id="Path"></path>
                    <path d="M32.4761446,13.7106024 C32.3942169,13.6942169 32.4433735,12.9363855 32.246747,12.686506 C32.0501205,12.4407229 30.3501205,10.4253012 29.9855422,8.4139759 C29.9855422,8.4139759 31.0587952,9.50361446 31.2390361,9.61831325 C31.4192771,9.73301205 32.1484337,10.4580723 32.3614458,11.0889157 C32.5744578,11.7156627 32.5253012,12.2440964 32.6072289,12.2604819 C32.6891566,12.2768675 32.6891566,11.5681928 32.6891566,11.5681928 C32.6891566,11.5681928 32.7055422,10.1836145 32.820241,9.52 C32.9349398,8.86048193 33.2339759,7.75445783 33.1028916,7.19325301 C33.1028916,7.19325301 33.7460241,8.2173494 33.713253,9.66746988 C33.6804819,11.1216867 33.0701205,12.2768675 32.9881928,12.4407229 C32.9062651,12.6045783 32.6727711,13.3173494 32.6727711,13.4648193 C32.6727711,13.6122892 32.4761446,13.7106024 32.4761446,13.7106024 Z" id="Path"></path>
                    <path d="M30.4648193,3.37951807 C30.4648193,3.37951807 32.693253,4.69855422 32.3450602,9.1226506 C32.3450602,9.1226506 32.3450602,9.31927711 32.2139759,9.10626506 C32.0828916,8.89325301 31.6036145,8.28289157 31.3906024,8.14771084 C31.1775904,8.01662651 29.1949398,6.81228916 28.3551807,4.96072289 C28.3551807,4.96072289 28.4862651,4.92795181 28.686988,5.10819277 C28.8836145,5.28843373 29.4939759,5.60385542 29.5963855,5.65301205 C29.6946988,5.70216867 30.386988,5.88240964 30.8990361,6.44361446 C31.4110843,7.00481928 31.5913253,7.41855422 31.7387952,7.74626506 C31.7387952,7.74626506 31.8862651,7.86096386 31.7879518,7.53325301 C31.6896386,7.20144578 31.673253,6.98843373 31.406988,6.5746988 C31.1448193,6.16096386 30.9113253,5.41951807 30.8785542,4.90746988 C30.8457831,4.40361446 30.6942169,3.64578313 30.4648193,3.37951807 Z" id="Path"></path>
                    <path d="M30.0838554,4.93204819 C30.0838554,4.93204819 30.133012,4.63301205 29.92,4.22337349 C29.706988,3.80963855 29.8749398,3.35084337 29.1949398,2.26120482 C28.8139759,1.65084337 27.4949398,1.17156627 27.4949398,1.17156627 C27.4949398,1.17156627 27.8759036,1.7 28.1216867,1.99493976 C28.3674699,2.2939759 28.453494,2.50698795 28.5354217,2.65445783 C28.6173494,2.80192771 29.0761446,3.24433735 29.2440964,3.49421687 C29.2768675,3.54337349 29.3424096,3.67445783 29.3424096,3.75638554 C29.3424096,3.83831325 29.1621687,3.70722892 29.113012,3.65807229 C29.0638554,3.60891566 28.2568675,2.99855422 27.7448193,2.90024096 C27.2327711,2.80192771 26.2578313,2.70361446 25.9956627,2.56843373 C25.9956627,2.56843373 27.1508434,3.60891566 28.4043373,3.92024096 C29.6578313,4.23975904 30.0838554,4.93204819 30.0838554,4.93204819 Z" id="Path"></path>
                    <path d="M27.4785542,2.20795181 C27.4785542,2.20795181 26.3233735,0.639036145 24.2587952,0.671807229 C24.2587952,0.671807229 24.373494,0.786506024 24.606988,0.835662651 C24.8363855,0.884819277 25.2501205,1.29855422 25.4631325,1.42963855 C25.680241,1.56481928 26.1226506,1.89662651 27.4785542,2.20795181 Z" id="Path"></path>
                </g>
                <path d="M22.7144578,0.0573493976 L22.7144578,19.4455422 C22.7144578,21.1414458 22.4318072,22.6366265 21.866506,23.9351807 C21.3012048,25.2337349 20.5228916,26.3192771 19.5274699,27.1918072 C18.5320482,28.0643373 17.3440964,28.7238554 15.9677108,29.1703614 C14.5872289,29.6127711 13.0879518,29.8380723 11.4575904,29.8380723 C9.81493976,29.8380723 8.30746988,29.6168675 6.92698795,29.1703614 C5.54650602,28.7279518 4.3626506,28.0684337 3.36722892,27.1918072 C2.37180723,26.3192771 1.59349398,25.2296386 1.03638554,23.9351807 C0.479277108,22.6366265 0.200722892,21.1414458 0.200722892,19.4455422 L0.200722892,0.0573493976 L6.25518072,0.0573493976 L6.25518072,19.4455422 C6.25518072,21.3708434 6.7139759,22.7718072 7.63566265,23.6525301 C8.5573494,24.533253 9.8313253,24.9756627 11.4575904,24.9756627 C13.100241,24.9756627 14.3742169,24.5373494 15.2795181,23.6525301 C16.1889157,22.7718072 16.6395181,21.3708434 16.6395181,19.4455422 L16.6395181,0.0573493976 L22.7144578,0.0573493976 Z" id="Path"></path>
                <polygon id="Path" points="51.5653012 29.4325301 45.5149398 29.4325301 33.7337349 10.1057831 33.7337349 29.4325301 27.6792771 29.4325301 27.6792771 0.0573493976 33.7296386 0.0573493976 45.5313253 19.4250602 45.5313253 0.0573493976 51.5653012 0.0573493976"></polygon>
                <g id="Group" transform="translate(0.000000, 35.638554)">
                    <path d="M4.56746988,12.7684337 C3.29759036,12.7684337 2.26120482,12.3710843 1.46240964,11.5763855 C0.663614458,10.7816867 0.26626506,9.72072289 0.26626506,8.39759036 L0.26626506,8.16819277 C0.26626506,7.27927711 0.434216867,6.4886747 0.770120482,5.78819277 C1.1060241,5.08771084 1.58120482,4.54698795 2.19975904,4.17012048 C2.81421687,3.79325301 3.51879518,3.60072289 4.30939759,3.60072289 C5.49325301,3.60072289 6.42722892,3.98168675 7.10722892,4.74361446 C7.78722892,5.50554217 8.12722892,6.58698795 8.12722892,7.98795181 L8.12722892,8.95060241 L2.61349398,8.95060241 C2.68722892,9.52819277 2.91253012,9.99108434 3.28939759,10.3392771 C3.66626506,10.6874699 4.14144578,10.8636145 4.71903614,10.8636145 C5.61204819,10.8636145 6.30843373,10.5359036 6.80819277,9.87638554 L7.94289157,11.1749398 C7.5946988,11.6746988 7.12771084,12.0679518 6.53373494,12.346506 C5.94795181,12.6291566 5.28843373,12.7684337 4.56746988,12.7684337 Z M4.3053012,5.50963855 C3.84650602,5.50963855 3.47373494,5.66939759 3.18698795,5.98481928 C2.90024096,6.30433735 2.72,6.75493976 2.63807229,7.34891566 L5.85783133,7.34891566 L5.85783133,7.16048193 C5.84554217,6.63614458 5.70626506,6.23060241 5.44,5.94385542 C5.17373494,5.65301205 4.79686747,5.50963855 4.3053012,5.50963855 Z" id="Shape"></path>
                    <path d="M11.6746988,3.7686747 L11.7484337,4.7886747 C12.366988,3.99807229 13.1985542,3.60481928 14.2390361,3.60481928 C15.1566265,3.60481928 15.8407229,3.87927711 16.2872289,4.42819277 C16.7337349,4.97710843 16.9672289,5.80048193 16.9754217,6.89421687 L16.9754217,12.6045783 L14.6609639,12.6045783 L14.6609639,6.95156627 C14.6609639,6.45180723 14.5544578,6.08722892 14.3414458,5.86192771 C14.1284337,5.63662651 13.7720482,5.52192771 13.2763855,5.52192771 C12.6250602,5.52192771 12.1375904,5.80457831 11.8098795,6.36987952 L11.8098795,12.6045783 L9.49542169,12.6045783 L9.49542169,3.7686747 L11.6746988,3.7686747 Z" id="Path"></path>
                    <polygon id="Path" points="22.0713253 9.72481928 23.6812048 3.7686747 26.0980723 3.7686747 23.173253 12.6086747 20.9653012 12.6086747 18.0404819 3.7686747 20.4573494 3.7686747"></polygon>
                    <path d="M27.2,1.48289157 C27.2,1.13060241 27.3146988,0.835662651 27.5481928,0.60626506 C27.7816867,0.37686747 28.0971084,0.262168675 28.4985542,0.262168675 C28.8918072,0.262168675 29.2072289,0.37686747 29.4448193,0.60626506 C29.6783133,0.835662651 29.7971084,1.12650602 29.7971084,1.48289157 C29.7971084,1.84337349 29.6783133,2.13421687 29.4407229,2.36361446 C29.2031325,2.59301205 28.8877108,2.70771084 28.4985542,2.70771084 C28.1093976,2.70771084 27.7939759,2.59301205 27.5563855,2.36361446 C27.3187952,2.13421687 27.2,1.83927711 27.2,1.48289157 Z M29.6578313,12.6086747 L27.3351807,12.6086747 L27.3351807,3.7686747 L29.6578313,3.7686747 L29.6578313,12.6086747 Z" id="Shape"></path>
                    <path d="M36.5315663,5.98072289 C36.2161446,5.93566265 35.9375904,5.91518072 35.7,5.91518072 C34.8233735,5.91518072 34.2498795,6.21831325 33.9795181,6.82048193 L33.9795181,12.6045783 L31.6650602,12.6045783 L31.6650602,3.7686747 L33.8525301,3.7686747 L33.9180723,4.82144578 C34.3809639,4.01036145 35.0240964,3.60481928 35.8474699,3.60481928 C36.1055422,3.60481928 36.3431325,3.64168675 36.5684337,3.7113253 L36.5315663,5.98072289 Z" id="Path"></path>
                    <path d="M37.0968675,8.10674699 C37.0968675,7.23012048 37.2607229,6.44771084 37.5925301,5.76361446 C37.9243373,5.07542169 38.3995181,4.54698795 39.0221687,4.17012048 C39.6448193,3.79325301 40.3657831,3.60481928 41.1891566,3.60481928 C42.3566265,3.60481928 43.3110843,3.96939759 44.0525301,4.69855422 C44.7939759,5.42771084 45.2036145,6.41903614 45.2896386,7.67253012 L45.3060241,8.27879518 C45.3060241,9.6346988 44.933253,10.7243373 44.1918072,11.5436145 C43.4503614,12.3628916 42.4549398,12.7725301 41.2055422,12.7725301 C39.9561446,12.7725301 38.9607229,12.3628916 38.2151807,11.5477108 C37.4696386,10.7325301 37.0968675,9.61831325 37.0968675,8.21325301 L37.0968675,8.10674699 L37.0968675,8.10674699 Z M39.4113253,8.2746988 C39.4113253,9.11445783 39.566988,9.75759036 39.8742169,10.2 C40.1814458,10.6424096 40.6279518,10.8677108 41.2055422,10.8677108 C41.766747,10.8677108 42.2050602,10.646506 42.5204819,10.2081928 C42.8359036,9.76987952 42.9915663,9.0653012 42.9915663,8.1026506 C42.9915663,7.27927711 42.8359036,6.64024096 42.5204819,6.18963855 C42.2050602,5.73903614 41.7626506,5.50963855 41.1891566,5.50963855 C40.6238554,5.50963855 40.1855422,5.73493976 39.8742169,6.18554217 C39.566988,6.63204819 39.4113253,7.32843373 39.4113253,8.2746988 Z" id="Shape"></path>
                    <path d="M48.96,3.7686747 L49.0337349,4.7886747 C49.6522892,3.99807229 50.4838554,3.60481928 51.5243373,3.60481928 C52.4419277,3.60481928 53.1260241,3.87927711 53.5725301,4.42819277 C54.0190361,4.97710843 54.2525301,5.80048193 54.2607229,6.89421687 L54.2607229,12.6045783 L51.9462651,12.6045783 L51.9462651,6.95156627 C51.9462651,6.45180723 51.839759,6.08722892 51.626747,5.86192771 C51.4137349,5.63662651 51.0573494,5.52192771 50.5616867,5.52192771 C49.9103614,5.52192771 49.4228916,5.80457831 49.0951807,6.36987952 L49.0951807,12.6045783 L46.7807229,12.6045783 L46.7807229,3.7686747 L48.96,3.7686747 Z" id="Path"></path>
                    <path d="M58.2833735,3.7686747 L58.3571084,4.75590361 C58.9715663,3.98578313 59.8031325,3.60481928 60.8477108,3.60481928 C61.9619277,3.60481928 62.7279518,4.05542169 63.1457831,4.95253012 C63.7520482,4.05542169 64.6204819,3.60481928 65.746988,3.60481928 C66.6850602,3.60481928 67.3855422,3.88337349 67.8443373,4.44048193 C68.3031325,4.99759036 68.5325301,5.8373494 68.5325301,6.95975904 L68.5325301,12.6045783 L66.2098795,12.6045783 L66.2098795,6.96795181 C66.2098795,6.46819277 66.1156627,6.09951807 65.9231325,5.87012048 C65.7306024,5.63662651 65.3906024,5.52192771 64.9072289,5.52192771 C64.2149398,5.52192771 63.7315663,5.85783133 63.4653012,6.53373494 L63.473494,12.6045783 L61.1590361,12.6045783 L61.1590361,6.97614458 C61.1590361,6.46409639 61.0607229,6.09542169 60.8640964,5.8660241 C60.6674699,5.63662651 60.3315663,5.52192771 59.8563855,5.52192771 C59.2009639,5.52192771 58.7257831,5.80048193 58.4308434,6.35349398 L58.4308434,12.6045783 L56.1163855,12.6045783 L56.1163855,3.7686747 L58.2833735,3.7686747 Z" id="Path"></path>
                    <path d="M74.3985542,12.7684337 C73.1286747,12.7684337 72.0922892,12.3710843 71.293494,11.5763855 C70.4946988,10.7816867 70.0973494,9.72072289 70.0973494,8.39759036 L70.0973494,8.16819277 C70.0973494,7.27927711 70.2653012,6.4886747 70.6012048,5.78819277 C70.9371084,5.08771084 71.4122892,4.54698795 72.0308434,4.17012048 C72.6453012,3.79325301 73.3498795,3.60072289 74.1404819,3.60072289 C75.3243373,3.60072289 76.2583133,3.98168675 76.9383133,4.74361446 C77.6183133,5.50554217 77.9583133,6.58698795 77.9583133,7.98795181 L77.9583133,8.95060241 L72.4404819,8.95060241 C72.5142169,9.52819277 72.7395181,9.99108434 73.1163855,10.3392771 C73.493253,10.6874699 73.9684337,10.8636145 74.5460241,10.8636145 C75.4390361,10.8636145 76.1354217,10.5359036 76.6351807,9.87638554 L77.7698795,11.1749398 C77.4216867,11.6746988 76.9546988,12.0679518 76.3607229,12.346506 C75.7790361,12.6291566 75.1195181,12.7684337 74.3985542,12.7684337 Z M74.1363855,5.50963855 C73.6775904,5.50963855 73.3048193,5.66939759 73.0180723,5.98481928 C72.7313253,6.30433735 72.5510843,6.75493976 72.4691566,7.34891566 L75.6889157,7.34891566 L75.6889157,7.16048193 C75.6766265,6.63614458 75.5373494,6.23060241 75.2710843,5.94385542 C75.0048193,5.65301205 74.6279518,5.50963855 74.1363855,5.50963855 Z" id="Shape"></path>
                    <path d="M81.5057831,3.7686747 L81.5795181,4.7886747 C82.1980723,3.99807229 83.0296386,3.60481928 84.0701205,3.60481928 C84.9877108,3.60481928 85.6718072,3.87927711 86.1183133,4.42819277 C86.5648193,4.97710843 86.7983133,5.80048193 86.806506,6.89421687 L86.806506,12.6045783 L84.4920482,12.6045783 L84.4920482,6.95156627 C84.4920482,6.45180723 84.3855422,6.08722892 84.1725301,5.86192771 C83.9595181,5.63662651 83.6031325,5.52192771 83.1074699,5.52192771 C82.4561446,5.52192771 81.9686747,5.80457831 81.6409639,6.36987952 L81.6409639,12.6045783 L79.326506,12.6045783 L79.326506,3.7686747 L81.5057831,3.7686747 Z" id="Path"></path>
                    <path d="M91.4313253,1.59349398 L91.4313253,3.7686747 L92.9142169,3.7686747 L92.9142169,5.50144578 L91.4313253,5.50144578 L91.4313253,9.91325301 C91.4313253,10.2409639 91.4927711,10.4744578 91.6156627,10.6137349 C91.7385542,10.7571084 91.9720482,10.826747 92.320241,10.826747 C92.5742169,10.826747 92.8036145,10.8062651 93.000241,10.7693976 L93.000241,12.5595181 C92.5455422,12.7028916 92.0785542,12.7725301 91.5992771,12.7725301 C89.9771084,12.7725301 89.1496386,11.9368675 89.1168675,10.2655422 L89.1168675,5.50144578 L87.8510843,5.50144578 L87.8510843,3.7686747 L89.1168675,3.7686747 L89.1168675,1.59349398 L91.4313253,1.59349398 L91.4313253,1.59349398 Z" id="Path"></path>
                </g>
                <g id="Group" transform="translate(0.409639, 54.891566)">
                    <path d="M7.97156627,4.91566265 C7.97156627,6.27566265 7.66843373,7.36939759 7.06216867,8.1886747 C6.45590361,9.00795181 5.63662651,9.41759036 4.60843373,9.41759036 C3.73180723,9.41759036 3.02313253,9.10626506 2.48650602,8.48771084 L2.48650602,12.6537349 L0.172048193,12.6537349 L0.172048193,0.417831325 L2.31855422,0.417831325 L2.40048193,1.28216867 C2.96168675,0.593975904 3.69084337,0.253975904 4.59614458,0.253975904 C5.6653012,0.253975904 6.49277108,0.659518072 7.08674699,1.46240964 C7.68072289,2.26939759 7.97566265,3.37951807 7.97566265,4.79686747 L7.97566265,4.91566265 L7.97156627,4.91566265 Z M5.65710843,4.74361446 C5.65710843,3.92024096 5.51373494,3.2853012 5.22698795,2.83879518 C4.94024096,2.39228916 4.52650602,2.16698795 3.98168675,2.16698795 C3.25662651,2.16698795 2.75686747,2.44963855 2.48240964,3.01493976 L2.48240964,6.63614458 C2.76506024,7.21783133 3.26891566,7.50870179 3.9939759,7.50870179 C5.10409639,7.51277108 5.65710843,6.59108434 5.65710843,4.74361446 Z" id="Shape"></path>
                    <path d="M14.3742169,2.62987952 C14.0587952,2.58481928 13.780241,2.56433735 13.5426506,2.56433735 C12.6660241,2.56433735 12.0925301,2.86746988 11.8221687,3.46963855 L11.8221687,9.25373494 L9.50361446,9.25373494 L9.50361446,0.41373494 L11.6910843,0.41373494 L11.7566265,1.46650602 C12.2195181,0.655421687 12.8626506,0.249879518 13.6860241,0.249879518 C13.9440964,0.249879518 14.1816867,0.286746988 14.406988,0.356385542 L14.3742169,2.62987952 Z" id="Path"></path>
                    <path d="M14.9354217,4.75180723 C14.9354217,3.87518072 15.0992771,3.09277108 15.4310843,2.4086747 C15.7628916,1.72048193 16.2380723,1.19204819 16.8607229,0.815180723 C17.4833735,0.438313253 18.2043373,0.249879518 19.0277108,0.249879518 C20.1951807,0.249879518 21.1496386,0.614457831 21.8910843,1.34361446 C22.6325301,2.07277108 23.0421687,3.06409639 23.1281928,4.31759036 L23.1445783,4.92385542 C23.1445783,6.27975904 22.7718072,7.36939759 22.0303614,8.1886747 C21.2889157,9.00795181 20.293494,9.41759036 19.0440964,9.41759036 C17.7946988,9.41759036 16.7992771,9.00795181 16.0537349,8.19277108 C15.3081928,7.37759036 14.9354217,6.26337349 14.9354217,4.85831325 L14.9354217,4.75180723 Z M17.2498795,4.91975904 C17.2498795,5.75951807 17.4055422,6.4026506 17.7127711,6.84506024 C18.0240964,7.29156627 18.466506,7.51277108 19.0440964,7.51277108 C19.6053012,7.51277108 20.0436145,7.29156627 20.3590361,6.85325301 C20.6744578,6.41493976 20.8301205,5.71036145 20.8301205,4.74771084 C20.8301205,3.92433735 20.6744578,3.2853012 20.3590361,2.8346988 C20.0436145,2.38409639 19.6012048,2.1546988 19.0277108,2.1546988 C18.4624096,2.1546988 18.0240964,2.38 17.7127711,2.83060241 C17.4055422,3.27710843 17.2498795,3.97759036 17.2498795,4.91975904 Z" id="Shape"></path>
                    <path d="M24.3325301,4.76819277 C24.3325301,3.41228916 24.6479518,2.31855422 25.2787952,1.49108434 C25.9137349,0.663614458 26.7657831,0.249879518 27.8390361,0.249879518 C28.7893976,0.249879518 29.526747,0.581686747 30.0592771,1.2453012 L30.153494,0.41373494 L32.2508434,0.41373494 L32.2508434,8.95879518 C32.2508434,9.73301205 32.0787952,10.4048193 31.7346988,10.9783133 C31.3906024,11.5518072 30.9072289,11.9860241 30.2804819,12.2850602 C29.6537349,12.5840964 28.9245783,12.7356627 28.0848193,12.7356627 C27.4498795,12.7356627 26.8313253,12.6045783 26.2250602,12.346506 C25.6228916,12.0884337 25.1640964,11.7525301 24.8568675,11.346988 L25.8809639,9.90915663 C26.4585542,10.5686747 27.1549398,10.8963855 27.9783133,10.8963855 C28.5927711,10.8963855 29.0720482,10.7284337 29.4120482,10.3925301 C29.7520482,10.0566265 29.9240964,9.58144578 29.9240964,8.96698795 L29.9240964,8.49180723 C29.3915663,9.10626506 28.686988,9.41349398 27.8185542,9.41349398 C26.7780723,9.41349398 25.9342169,8.99975904 25.2910843,8.16819277 C24.6479518,7.33662651 24.3243373,6.2346988 24.3243373,4.86240964 L24.3243373,4.76819277 L24.3325301,4.76819277 Z M26.646988,4.94433735 C26.646988,5.74722892 26.8026506,6.3739759 27.1180723,6.8286747 C27.433494,7.28337349 27.8636145,7.51277108 28.4166265,7.51277108 C29.1212048,7.51277108 29.6250602,7.24240964 29.9281928,6.70168675 L29.9281928,2.97807229 C29.6168675,2.4373494 29.1212048,2.16698795 28.4289157,2.16698795 C27.8759036,2.16698795 27.4375904,2.40048193 27.1180723,2.86337349 C26.806747,3.33036145 26.646988,4.0226506 26.646988,4.94433735 Z" id="Shape"></path>
                    <path d="M38.9975904,2.62987952 C38.6821687,2.58481928 38.4036145,2.56433735 38.1660241,2.56433735 C37.2893976,2.56433735 36.7159036,2.86746988 36.4455422,3.46963855 L36.4455422,9.25373494 L34.1310843,9.25373494 L34.1310843,0.41373494 L36.3185542,0.41373494 L36.3840964,1.46650602 C36.846988,0.655421687 37.4901205,0.249879518 38.313494,0.249879518 C38.5715663,0.249879518 38.8091566,0.286746988 39.0344578,0.356385542 L38.9975904,2.62987952 Z" id="Path"></path>
                    <path d="M44.9906024,9.25373494 C44.8840964,9.04072289 44.8062651,8.77855422 44.7571084,8.46313253 C44.1959036,9.10216867 43.466747,9.41759036 42.5696386,9.41759036 C41.7216867,9.41759036 41.0171084,9.16771084 40.46,8.66795181 C39.9028916,8.16819277 39.6243373,7.53325301 39.6243373,6.7713253 C39.6243373,5.83325301 39.9643373,5.11638554 40.6443373,4.61662651 C41.3243373,4.11686747 42.3074699,3.86289157 43.5937349,3.8546988 L44.6587952,3.8546988 L44.6587952,3.34674699 C44.6587952,2.93710843 44.5563855,2.60939759 44.3515663,2.36771084 C44.146747,2.12192771 43.8231325,1.99903614 43.3766265,1.99903614 C42.9874699,1.99903614 42.680241,2.09325301 42.4590361,2.28578313 C42.2378313,2.47421687 42.1272289,2.73638554 42.1272289,3.06819277 L39.8127711,3.06819277 C39.8127711,2.55614458 39.9684337,2.08096386 40.2756627,1.64674699 C40.586988,1.20843373 41.0253012,0.868433735 41.5906024,0.622650602 C42.1559036,0.372771084 42.7908434,0.249879518 43.4954217,0.249879518 C44.5645783,0.249879518 45.4125301,0.524337349 46.0392771,1.07325301 C46.6660241,1.62216867 46.9814458,2.38819277 46.9814458,3.37951807 L46.9814458,7.20963855 C46.9855422,8.04939759 47.100241,8.68433735 47.3255422,9.11445783 L47.3255422,9.25373494 L44.9906024,9.25373494 L44.9906024,9.25373494 Z M43.0775904,7.61108434 C43.4175904,7.61108434 43.733012,7.53325301 44.0238554,7.37759036 C44.3106024,7.22192771 44.5236145,7.01301205 44.6628916,6.75084337 L44.6628916,5.23108434 L43.7985542,5.23108434 C42.6392771,5.23108434 42.0248193,5.64072289 41.946988,6.45590361 L41.9387952,6.59518072 C41.9387952,6.89012048 42.0412048,7.13180723 42.2419277,7.32024096 C42.446747,7.51686747 42.7253012,7.61108434 43.0775904,7.61108434 Z" id="Shape"></path>
                    <path d="M51.0327711,0.41373494 L51.106506,1.40096386 C51.7209639,0.630843373 52.5525301,0.249879518 53.5971084,0.249879518 C54.7113253,0.249879518 55.4773494,0.700481928 55.8951807,1.59759036 C56.5014458,0.700481928 57.3698795,0.249879518 58.4963855,0.249879518 C59.4344578,0.249879518 60.1349398,0.528433735 60.5937349,1.08554217 C61.0525301,1.6426506 61.2819277,2.48240964 61.2819277,3.60481928 L61.2819277,9.24963855 L58.9592771,9.24963855 L58.9592771,3.61301205 C58.9592771,3.11325301 58.8650602,2.74457831 58.6725301,2.51518072 C58.48,2.28168675 58.14,2.16698795 57.6566265,2.16698795 C56.9643373,2.16698795 56.4809639,2.50289157 56.2146988,3.17879518 L56.2228916,9.24963855 L53.9084337,9.24963855 L53.9084337,3.62120482 C53.9084337,3.10915663 53.8101205,2.74048193 53.613494,2.51108434 C53.4168675,2.28168675 53.0809639,2.16698795 52.6057831,2.16698795 C51.9503614,2.16698795 51.4751807,2.44554217 51.180241,2.99855422 L51.180241,9.24963855 L48.8657831,9.24963855 L48.8657831,0.409638554 L51.0327711,0.409638554 L51.0327711,0.41373494 Z" id="Path"></path>
                    <path d="M65.3291566,0.41373494 L65.4028916,1.40096386 C66.0173494,0.630843373 66.8489157,0.249879518 67.893494,0.249879518 C69.0077108,0.249879518 69.7737349,0.700481928 70.1915663,1.59759036 C70.7978313,0.700481928 71.6662651,0.249879518 72.7927711,0.249879518 C73.7308434,0.249879518 74.4313253,0.528433735 74.8901205,1.08554217 C75.3489157,1.6426506 75.5783133,2.48240964 75.5783133,3.60481928 L75.5783133,9.24963855 L73.2556627,9.24963855 L73.2556627,3.61301205 C73.2556627,3.11325301 73.1614458,2.74457831 72.9689157,2.51518072 C72.7763855,2.28168675 72.4363855,2.16698795 71.953012,2.16698795 C71.2607229,2.16698795 70.7773494,2.50289157 70.5110843,3.17879518 L70.5192771,9.24963855 L68.2048193,9.24963855 L68.2048193,3.62120482 C68.2048193,3.10915663 68.106506,2.74048193 67.9098795,2.51108434 C67.713253,2.28168675 67.3773494,2.16698795 66.9021687,2.16698795 C66.246747,2.16698795 65.7715663,2.44554217 65.4766265,2.99855422 L65.4766265,9.24963855 L63.1621687,9.24963855 L63.1621687,0.409638554 L65.3291566,0.409638554 L65.3291566,0.41373494 Z" id="Path"></path>
                    <path d="M81.4443373,9.41759036 C80.1744578,9.41759036 79.1380723,9.02024096 78.3392771,8.22554217 C77.5404819,7.43084337 77.1431325,6.36987952 77.1431325,5.04674699 L77.1431325,4.8173494 C77.1431325,3.92843373 77.3110843,3.13783133 77.646988,2.4373494 C77.9828916,1.73686747 78.4580723,1.19614458 79.0766265,0.819277108 C79.6910843,0.442409639 80.3956627,0.249879518 81.1862651,0.249879518 C82.3701205,0.249879518 83.3040964,0.630843373 83.9840964,1.39277108 C84.6640964,2.1546988 85.0040964,3.23614458 85.0040964,4.63710843 L85.0040964,5.59975904 L79.4862651,5.59975904 C79.56,6.1773494 79.7853012,6.64024096 80.1621687,6.98843373 C80.5390361,7.33662651 81.0142169,7.51277108 81.5918072,7.51277108 C82.4848193,7.51277108 83.1812048,7.18506024 83.6809639,6.52554217 L84.8156627,7.82409639 C84.4674699,8.32385542 84.0004819,8.71710843 83.406506,8.99566265 C82.8248193,9.27831325 82.1653012,9.41759036 81.4443373,9.41759036 Z M81.1821687,2.1546988 C80.7233735,2.1546988 80.3506024,2.31445783 80.0638554,2.62987952 C79.7771084,2.94939759 79.5968675,3.4 79.5149398,3.9939759 L82.7346988,3.9939759 L82.7346988,3.80554217 C82.7224096,3.28120482 82.5831325,2.87566265 82.3168675,2.58891566 C82.0506024,2.30216867 81.6737349,2.1546988 81.1821687,2.1546988 Z" id="Shape"></path>
                </g>
            </g>
        </g>
    </g>
</svg>